<?xml version="1.0" encoding="UTF-8" standalone="no"?>
<svg xmlns="http://www.w3.org/2000/svg" xmlns:xlink="http://www.w3.org/1999/xlink" width="316.000mm" height="223.000mm" viewBox="0.000000 0.000000 316.000000 223.000000" stroke-linejoin="round" stroke-linecap="round" fill="none" fill-rule="evenodd"><desc>Composer Export</desc><script type="text/ecmascript"><![CDATA[
if(typeof(top) != "undefined")
{
	top.ShowPaper = ShowPaper;
}
function ShowHotSpot(evt,hotspotid)
{
	var svgDocument = evt.target.ownerDocument;
	var strId = "hotspot."+hotspotid;
	var hotspot = svgDocument.getElementById(strId);
	if(hotspot)
		hotspot.setAttribute("opacity",".5");
}
function HideHotSpot(evt,hotspotid)
{
	var svgDocument = evt.target.ownerDocument;
	var strId = "hotspot."+hotspotid;
	var hotspot = svgDocument.getElementById(strId);
	if(hotspot)
		hotspot.setAttribute("opacity","0");

	var toolTip = svgDocument.getElementById('ToolTip');
	if(toolTip)
		toolTip.setAttribute("visibility","hidden");
}
function ShowToolTip(evt,hotspotid,strTooltip)
{
	if(strTooltip=="")
	return;

	// change text
	var svgDocument = evt.target.ownerDocument;
	var tiptext = svgDocument.getElementById('ToolTipText');
	if( !tiptext )
	return;
	tiptext.firstChild.nodeValue = " " + strTooltip + "  " ;

	// show tooltip before, else some refresh issue

	var toolTip = svgDocument.getElementById('ToolTip');
	if(!toolTip)
	return;

	toolTip.setAttribute("visibility","visible");
	toolTip.setAttribute("opacity",".95");

	// move tooltip
	// get viewbox

	var root = svgDocument.documentElement;
	var vbox = (root.getAttribute("viewBox")).split(' ');
	var x0 = parseFloat(vbox[0]);
	var y0 = parseFloat(vbox[1]);
	var vboxW = parseFloat(vbox[2]);
	var vboxH = parseFloat(vbox[3]);

	// get default width of svg

	var strW = root.getAttribute("width");
	var svgW = parseFloat(strW);
	if(strW.indexOf('mm') != -1)
	svgW *= 3.779;

	var strH = root.getAttribute("height");
	var svgH = parseFloat(strH);
	if(strH.indexOf('mm') != -1)
	svgH *= 3.779;  	// 96 dpi  -> 96/25.4 = 3.779

	// update the viewbox / width / height if svg is embedded in html with zoom fit all
	var realx0 = x0;
	var realy0 = y0;
	var realvboxW = vboxW;
	var realvboxH = vboxH;
	var realsvgW = svgW;
	var realsvgH = svgH;

	if ((typeof(top) == "undefined") || (typeof(top.svgctl1) != "undefined")) // embedded in html
	{
		// get window size in pxl

		svgW = window.innerWidth;
		svgH = window.innerHeight;

		// calculate real viewbox

		realsvgW = svgW;
		realsvgH = svgH;
		if((svgW / svgH) > (vboxW / vboxH))
		{
			realvboxW = (vboxH * svgW) / svgH;
			realvboxH = vboxH;
			realx0 = x0 - (realvboxW - vboxW)/2 ;
		}
		else
		{
			realvboxH = (vboxW * svgH) / svgW;
			realvboxW = vboxW;
			realy0 = y0 - (realvboxH - vboxH)/2 ;
		}
	}

	// get user zoom/pan

	var newScale = root.currentScale;
	var translation = root.currentTranslate;

	// transform pxl to user unit

	var xPos = (((evt.clientX+10- translation.x)/newScale) * realvboxW)/realsvgW  + realx0 ;
	var yPos = (((evt.clientY+5- translation.y)/newScale) * realvboxH)/ realsvgH  + realy0 ;
	var scaleForWidth = ( (1 / newScale) * realvboxH) / realsvgH;

	// move tooltip

	toolTip.setAttribute("transform", "translate(" + xPos + "," + yPos + ")" );

	// resize tooltip

	var fontsize = 12;
	tiptext.setAttribute("font-size",fontsize*scaleForWidth);
	tiptext.setAttribute("y", fontsize*scaleForWidth);
	var tipBG = svgDocument.getElementById('ToolTipBG');
	var outline = tiptext.getBBox();
	if(tipBG)
	{
		tipBG.setAttribute("stroke-width", 1*scaleForWidth);
		tipBG.setAttribute("width", Number(outline.width) );
		tipBG.setAttribute("height", Number(outline.height) + fontsize*.5*scaleForWidth );
	}
	var ToolTipShadow = svgDocument.getElementById('ToolTipShadow');
	if(ToolTipShadow)
	{
		ToolTipShadow.setAttribute("width", Number(outline.width) );
		ToolTipShadow.setAttribute("height", Number(outline.height) + fontsize*.5*scaleForWidth );
		ToolTipShadow.setAttribute("x", 3*scaleForWidth);
		ToolTipShadow.setAttribute("y", 3*scaleForWidth);
	}
}
function ShowPaper()
{
  var svgDocument = getDocument();
  var paper = svgDocument.getElementById("paperID");
  if(paper)
  {
    paper.setAttribute("transform","scale(1)");
    paper.setAttribute("opacity","1");
    paper.setAttribute("visibility","visible");
  }
  var svg = svgDocument.getRootElement();
  if(svg)
  {
    svg.setAttribute("width","326.000mm");
    svg.setAttribute("height","233.000mm");
    svg.setAttribute("viewBox","-5.000000 -5.000000 326.000000 233.000000");
  }
}
]]></script><defs/><g><path style="fill:#ffffff" d="M315.84,222.92L0.08,222.92L0.08,0.08L315.84,0.08z"/><path style="fill:#c0c0c0" d="M143.87,63.95L145.48,64.70L146.50,66.55L146.40,68.14L145.36,68.69L140.96,67.90L140.18,67.38L139.43,66.29L139.42,64.04L140.10,63.41L141.25,63.43z"/><path style="fill:#c0c0c0" d="M145.44,72.07L148.35,73.87L151.23,77.01L152.50,79.13L153.81,82.28L154.33,84.63L154.34,88.65L153.81,90.21L152.54,92.34L151.11,93.26L149.55,93.80L147.00,93.80L144.65,93.00L141.79,91.15L139.95,89.33L139.65,88.59L138.62,87.26L137.59,85.15L137.29,84.22L136.54,80.97L136.54,77.38L137.06,75.29L138.52,73.09L140.38,71.81L141.16,71.54L143.60,71.54z"/><path style="fill:#000000" d="M152.00,201.90L150.82,201.93L150.90,201.64z"/><path style="fill:#000000" d="M153.64,202.32L152.39,202.15L153.53,202.17z"/><path style="fill:#000000" d="M153.75,202.48L153.64,202.32L154.62,202.41z"/><path style="fill:#000000" d="M162.02,203.89L160.77,203.72L161.91,203.74z"/><path style="fill:#000000" d="M163.44,204.31L163.32,204.15L164.31,204.24z"/><path style="fill:#000000" d="M166.13,204.31L164.95,204.58L164.94,204.27z"/><g id="Actor_130.0"><g style="stroke:#000000;stroke-width:0.088"><path d="M172.70,209.54L171.65,209.20L171.21,208.78L170.85,208.25L170.59,207.62L170.42,206.91L145.20,202.18L145.27,201.83L145.19,202.18L144.48,202.03L143.56,201.23L143.15,200.30L142.90,199.27L135.51,155.91L135.23,154.80L134.88,153.69"/><path d="M135.51,155.91L135.68,155.96L135.94,155.93L143.33,199.28L143.50,200.08L143.75,200.81L144.55,201.69L144.48,202.03"/><path d="M136.15,153.11L135.18,153.35L135.54,154.38L135.94,155.93L136.88,155.70L136.50,154.14L136.15,153.11L136.51,152.23L137.70,151.36L137.91,151.49L136.76,152.33L136.41,153.16L136.78,153.43L137.01,153.80L137.03,153.58L137.47,152.90L138.38,152.28L146.19,199.07L145.48,199.60"/><path d="M134.89,153.73L134.95,153.48L135.06,153.39L135.18,153.35L135.54,152.29L136.97,151.22L137.34,151.03L137.17,151.09"/><path d="M136.14,153.10L136.41,153.16L136.72,154.13L137.08,155.60L144.46,198.96L144.26,199.05L143.33,199.28L143.07,199.32L142.90,199.27"/><path d="M139.55,150.52L138.07,151.16L138.27,151.30L137.91,151.49L138.20,151.87L137.12,152.66L136.78,153.43L137.00,154.22L137.29,155.41L144.67,198.77L145.00,200.11"/><path d="M136.80,151.29L136.97,151.22"/><path d="M144.46,200.21L136.88,155.70L137.08,155.60L137.29,155.41L137.33,155.26L144.72,198.61L144.91,199.52L145.21,200.43"/><path d="M137.70,151.36L138.07,151.16"/><path d="M137.34,151.03L138.97,150.30"/><path d="M138.74,152.08L138.56,151.67L138.20,151.87L138.38,152.28L138.74,152.08L146.56,198.87L146.19,199.07L146.41,199.79L146.85,200.50L147.43,201.02L148.01,201.25L148.38,201.05L147.22,200.30L146.56,198.87"/><path d="M139.40,150.81L138.27,151.30L138.56,151.67L139.07,151.45"/><path d="M142.93,200.84L143.14,201.29L143.60,201.68L144.30,202.00L145.20,202.22L145.19,202.18"/><path d="M170.43,206.96L145.20,202.22L145.65,203.55L146.43,204.46L147.44,204.81"/><path d="M170.43,206.92L170.50,206.57L170.42,206.91L171.25,207.05L171.26,206.88L171.31,206.71L171.85,206.00L170.96,205.86L145.73,201.12L145.26,201.83L144.55,201.69L144.98,200.96L145.23,200.83L144.70,200.09L144.46,198.96L144.67,198.77L144.72,198.61"/><path d="M145.27,201.83L170.49,206.57"/><path d="M144.98,200.96L145.73,201.12L145.96,201.00"/><path d="M146.29,137.56L146.32,136.70L146.67,135.88L146.54,135.86L146.20,136.68L146.17,137.60L146.28,137.61L146.29,137.56"/><path d="M172.08,157.91L169.78,142.02L146.28,137.61L155.76,197.43L155.56,199.01L154.68,200.09L153.18,199.97L151.46,200.11L149.77,200.49L148.38,201.05"/><path d="M146.17,137.60L145.96,137.48L146.02,137.89"/><path d="M146.54,135.86L149.75,131.20L149.52,131.24L146.30,135.91L145.99,136.66L145.96,137.48L145.90,137.31"/><path d="M146.18,136.07L146.30,135.91"/><path d="M146.67,135.88L170.28,140.32L173.46,135.65L173.84,135.81L170.66,140.49L170.34,141.23L170.30,142.05L171.91,152.33L171.49,152.32L172.15,154.13L172.67,154.90L173.18,155.46L173.45,155.69L173.85,156.29"/><path d="M147.87,201.36L148.01,201.25"/><path d="M149.75,131.20L173.46,135.65L174.18,135.07L150.47,130.62L149.75,131.20"/><path d="M150.56,201.51L151.00,201.01L152.18,200.65L153.42,200.64L153.66,201.93L152.37,201.94L152.06,202.04"/><path d="M156.79,202.52L153.66,201.93L153.87,202.29"/><path d="M153.42,200.64L157.51,201.41L158.08,201.76"/><path d="M154.68,200.09L172.74,203.48"/><path d="M173.90,156.55L173.98,155.86L173.54,155.25L173.14,154.83L172.64,154.15L172.18,153.28L171.91,152.33L172.41,152.26L172.60,152.98L173.04,153.85L173.47,154.46L173.79,154.84L173.99,154.66L173.29,153.71L172.67,152.19L171.05,141.91L171.26,140.92L174.44,136.25L174.86,135.91L174.77,135.65L174.25,136.07L173.84,135.81L174.49,135.28L178.23,134.14L178.62,134.12L178.35,133.90L177.91,133.92L154.20,129.47"/><path d="M155.76,197.43L172.28,200.54"/><path d="M157.51,201.41L157.66,202.23"/><path d="M163.33,204.06L163.12,203.71L162.87,202.42L161.64,202.43L160.45,202.79L160.02,203.29"/><path d="M166.25,204.29L163.12,203.71L161.83,203.72L161.52,203.81"/><path d="M162.87,202.42L166.97,203.19L167.53,203.53"/><path d="M167.12,204.01L166.97,203.19"/><path d="M172.96,204.85L173.00,204.94L173.22,204.96L166.46,161.72L166.24,161.70L166.19,161.61"/><path d="M166.46,161.72L166.69,160.70L168.01,159.95L169.65,159.64L171.06,159.26L173.27,158.36L177.60,188.46L180.11,205.46L180.49,205.26L180.54,205.95L180.47,206.62L180.29,207.25L179.98,207.78"/><path d="M168.01,159.95L167.95,159.50L167.63,159.67"/><path d="M182.65,202.74L182.57,203.39L182.15,204.04L180.49,205.26L173.64,158.16L173.53,157.92L173.33,157.79L172.97,157.98L170.71,158.89L167.95,159.50L168.16,159.11"/><path d="M169.48,205.07L169.91,204.56L171.10,204.20L172.33,204.19L172.58,205.48L172.75,205.52"/><path d="M171.20,205.74L170.96,205.86L170.50,206.57L171.31,206.71L171.99,206.62L172.55,206.20"/><path d="M170.39,158.59L172.24,157.85L172.61,157.65L173.77,156.87L174.41,156.08L174.49,155.32L173.99,154.66L175.38,153.91L178.52,154.49L178.64,154.48"/><path d="M171.49,152.32L169.89,142.05L169.93,141.14L170.28,140.32"/><path d="M174.22,153.14L173.56,151.71L172.67,152.19L172.41,152.26L170.30,142.05L169.89,142.05L169.78,142.02L169.81,141.11L170.16,140.29"/><path d="M170.30,142.05L170.80,141.98L170.82,141.33L171.07,140.75L171.26,140.92"/><path d="M170.66,140.49L171.07,140.75L174.25,136.07L174.44,136.25"/><path d="M171.25,207.05L172.04,206.97L172.72,206.53L173.15,205.82L173.22,204.96"/><path d="M171.86,205.99L172.06,205.87"/><path d="M172.65,205.57L172.58,205.48L171.29,205.49L170.98,205.59"/><path d="M172.41,152.26L170.80,142.00L171.05,141.91"/><path d="M172.63,207.15L173.97,207.10L175.39,206.94L176.77,206.67L178.07,206.31L180.11,205.46L180.09,206.87L179.61,207.98L178.74,208.61"/><path d="M172.33,204.19L172.87,204.29"/><path d="M172.24,157.85L172.07,157.92"/><path d="M172.61,157.65L172.44,157.72"/><path d="M172.97,157.98L173.16,158.11L173.27,158.36L173.64,158.16L175.35,156.91L175.68,156.46L178.40,175.67L178.64,175.97L178.69,175.87"/><path d="M173.33,157.79L174.56,156.99L175.30,156.15L175.55,156.24L175.68,156.46L175.77,156.39L178.49,175.60L178.40,175.67"/><path d="M173.45,155.69L173.54,155.25L173.79,154.84L174.26,155.48L174.17,156.21"/><path d="M173.79,151.61L173.56,151.71"/><path d="M177.91,133.92L174.18,135.07L174.49,135.28L174.77,135.65L178.51,134.51L178.82,134.49L178.85,134.75L188.07,136.90L189.27,137.73L189.95,139.40L190.03,139.29L189.31,137.52L188.03,136.63L187.84,136.26L178.62,134.12L178.82,134.49L188.03,136.63L188.07,136.90"/><path d="M175.30,156.15L175.48,156.01L175.67,156.15L175.77,156.39L178.82,154.87L181.40,172.77L181.50,172.67"/><path d="M175.48,156.01L178.52,154.49L178.71,154.63L178.82,154.87"/><path d="M174.71,137.72L182.55,139.19L183.07,141.86"/><path d="M174.86,135.91L178.60,134.76L178.85,134.75"/><path d="M189.08,140.65L189.03,140.37L182.55,139.19L181.89,137.63L181.36,137.13L180.74,136.85L177.85,136.31"/><path d="M178.74,175.68L178.58,175.70L178.49,175.60L180.63,174.53L181.25,173.82L181.40,172.77"/><path d="M178.91,154.77L178.90,154.80"/><path d="M178.90,154.76L178.90,154.73"/><path d="M189.03,140.37L188.39,138.79L187.25,137.99L178.80,136.03"/><path d="M178.08,136.24L180.74,136.85L187.25,137.99"/><path d="M178.60,134.76L178.51,134.51"/><path d="M180.63,174.53L180.59,174.74"/><path d="M182.48,142.75L186.14,143.45L186.22,143.51L186.26,143.60L186.12,144.29L185.57,144.49L182.72,144.00"/><path d="M186.14,143.45L186.24,143.19L182.58,142.48"/><path d="M183.79,145.63L183.52,144.22"/><path d="M184.03,143.05L183.33,142.91"/><path d="M182.90,142.30L186.57,143.01L186.76,143.14L186.87,143.38L186.70,144.19"/><path d="M186.33,144.61L186.23,144.43"/><path d="M186.38,144.37L186.55,143.56L186.87,143.38L187.11,143.31L187.36,143.32"/><path d="M185.63,144.60L185.57,144.49"/><path d="M186.26,143.60L186.41,143.61L186.55,143.56L186.44,143.32L186.24,143.19L186.57,143.01L186.74,142.57"/><path d="M190.26,141.22L190.68,143.67L189.69,144.22L189.71,145.13L189.39,145.92L188.79,146.36"/><path d="M189.22,137.22L187.84,136.26"/><path d="M189.69,144.22L189.24,141.61"/><path d="M189.95,139.40L190.10,140.26"/><path d="M190.39,145.37L190.69,144.62L190.68,143.67L190.77,143.56L190.75,143.62L190.68,143.67"/></g><g style="stroke:#000000;stroke-width:0.353"><path d="M178.69,175.76L178.77,175.69L182.65,202.74L182.68,203.44L182.61,204.06L182.50,204.78L182.22,205.50L181.44,206.69L180.83,207.25L179.98,207.78L179.08,208.42L178.74,208.61L177.37,209.16L175.77,209.52L174.13,209.65L172.70,209.54L147.44,204.81L145.69,204.27L145.11,204.01L144.13,203.21L143.65,202.62L143.12,201.52L142.93,200.84L140.00,183.84L134.88,153.69L134.95,153.12L135.01,152.89L135.32,152.39L136.80,151.29L137.17,151.09L138.85,150.34L139.79,150.05"/><path d="M145.72,200.95L137.33,155.26L137.01,153.80"/><path d="M138.74,152.08L146.17,137.60L146.26,138.16"/><path d="M144.08,201.63L143.96,201.52L143.54,200.89L144.48,202.03L144.08,201.63"/><path d="M144.91,200.85L144.46,200.21L144.98,200.96L144.91,200.85"/><path d="M145.24,200.84L145.96,201.00L171.20,205.74L172.06,205.87L172.75,205.52"/><path d="M145.61,200.92L144.70,200.09"/><path d="M145.41,200.74L145.00,200.11"/><path d="M145.96,137.48L145.93,136.66L146.18,136.07L149.52,131.24L150.17,130.72L154.20,129.47L154.63,129.45L178.35,133.90L187.57,136.05L188.48,136.46L189.13,137.10L189.22,137.22L189.99,139.12L190.19,140.22"/><path d="M145.93,136.66L145.90,137.31L145.99,137.95"/><path d="M146.52,135.86L146.54,135.86L146.39,135.86L146.32,135.90"/><path d="M155.76,197.43L146.56,198.87"/><path d="M158.08,201.76L157.64,202.26L156.46,202.62L155.22,202.63L151.13,201.86L150.56,201.51"/><path d="M155.63,202.63L153.87,202.29L153.37,202.28"/><path d="M167.53,203.53L167.08,204.04L165.92,204.40L164.68,204.41L160.59,203.64L160.02,203.29"/><path d="M162.83,204.06L163.33,204.06L165.14,204.40"/><path d="M170.39,158.59L168.16,159.11L166.79,159.82L166.58,160.21L166.19,161.61L172.96,204.85L172.55,206.20"/><path d="M166.58,160.21L167.18,159.80L167.96,159.57L167.93,159.58"/><path d="M172.17,205.81L170.05,205.41L169.48,205.07"/><path d="M172.63,207.15L171.25,207.05L170.43,206.96"/><path d="M170.37,158.60L172.07,157.91L172.44,157.72L173.60,156.93L174.17,156.22"/><path d="M170.29,140.32L170.67,140.48"/><path d="M171.85,206.00L172.13,205.86L171.92,205.96"/><path d="M172.14,205.85L172.74,205.57"/><path d="M175.45,153.92L174.48,153.11L173.79,151.61L172.23,141.71L172.37,141.02L174.51,137.88L175.61,136.99L178.57,136.10L178.71,136.03L178.80,136.03"/><path d="M172.51,143.51L188.05,146.41L188.79,146.36L189.81,145.81L190.39,145.37L190.46,145.31L190.76,144.56L190.77,143.56L190.36,141.18"/><path d="M173.86,156.60L173.45,157.03"/><path d="M173.98,155.86L173.69,156.78"/><path d="M178.90,154.78L178.90,154.73L178.77,154.53L178.64,154.48L175.38,153.91L174.22,153.14"/><path d="M177.91,133.92L178.23,134.14L178.51,134.51"/><path d="M178.69,175.87L178.73,175.72"/><path d="M178.74,175.68L180.59,174.74L181.32,173.91L181.50,172.67L178.91,154.77L178.83,154.86"/><path d="M178.77,175.69L178.87,175.62"/><path d="M186.70,144.19L186.38,144.37L185.73,144.60L185.63,144.60L182.90,144.11L182.72,144.00L182.48,142.75L182.58,142.48L182.90,142.30L183.07,141.86L184.03,142.04L183.07,141.86"/><path d="M184.03,142.04L186.74,142.56L187.14,142.83L187.36,143.32L187.14,144.32L186.33,144.61L185.91,144.54"/><path d="M187.84,136.26L187.55,136.04"/><path d="M189.99,139.12L189.62,137.98L189.26,137.32"/></g></g><g id="Actor_09.0"><g style="stroke:#000000;stroke-width:0.088"><path d="M162.22,99.77L162.49,96.95L162.67,96.94L153.19,34.46L152.91,33.03L152.52,31.85L151.73,30.44L150.61,29.29L149.66,28.71L148.51,28.30L148.04,28.19L147.98,28.41L125.48,24.19L123.83,24.13L122.49,24.87L121.92,26.56L122.06,28.65L131.53,91.14L132.07,91.24L132.36,91.19L132.66,93.25L133.14,95.30L134.15,96.87L135.60,97.56L135.49,97.74L134.47,97.37L133.59,96.63L132.94,95.53L132.55,94.20L132.07,91.24L122.59,28.75L122.46,26.91L122.93,25.40L124.12,24.77L125.58,24.83L125.75,24.95L129.55,25.67"/><path d="M121.99,28.60L122.06,28.65"/><path d="M132.40,91.17L132.36,91.19L122.88,28.71L122.75,26.93L123.20,25.48"/><path d="M122.92,28.69L122.74,28.75L122.59,28.75"/><path d="M125.48,24.19L125.49,24.07L125.54,23.97L125.07,23.90L123.97,23.89L123.14,24.13L122.29,24.91"/><path d="M123.44,23.49L123.71,23.24"/><path d="M124.02,25.06L123.96,25.22"/><path d="M124.29,22.71L125.36,22.41L126.52,22.44L126.96,22.51L149.89,26.82L151.12,27.24L152.34,27.98L153.46,29.11L154.33,30.55L154.73,31.66"/><path d="M125.58,24.83L148.08,29.06L148.14,29.17"/><path d="M125.54,23.97L148.04,28.19"/><path d="M126.96,22.51L127.64,22.14L133.27,23.20L133.34,23.18"/><path d="M131.47,91.08L131.53,91.14L131.94,94.08"/><path d="M161.22,119.02L160.65,118.86L160.59,118.77L160.25,118.32L160.00,117.39L137.50,113.17L135.32,98.70L134.07,98.22L132.78,96.96L132.05,95.00L131.70,92.83"/><path d="M167.42,118.52L167.63,118.32L167.78,118.04L167.86,117.68L167.88,117.24L167.82,116.72L166.70,117.20L165.52,117.50L163.18,117.70L161.21,117.58L160.00,117.39L157.82,103.02L135.32,98.80L134.20,98.40L133.98,98.17"/><path d="M133.27,23.20L150.14,26.36L149.45,26.73"/><path d="M138.72,114.79L138.16,114.64L137.75,114.10L137.50,113.17L136.40,112.92L135.12,112.43L134.56,111.69"/><path d="M135.32,98.70L157.82,102.92L157.82,103.02L159.01,103.05L160.83,102.21L162.04,100.63L162.66,98.64L162.67,96.94"/><path d="M158.54,101.55L158.09,101.78L135.60,97.56L135.94,97.38"/><path d="M135.49,97.74L157.99,101.96L158.03,101.85L158.09,101.78L159.48,101.68"/><path d="M139.56,72.35L139.62,72.27"/><path d="M146.35,68.32L146.22,68.34"/><path d="M157.99,101.96L159.06,101.99L160.11,101.61L161.00,100.79L161.62,99.66L161.95,96.85L152.47,34.36L152.03,32.46L151.06,30.68L149.61,29.55L148.08,29.06"/><path d="M147.98,28.41L149.72,28.99L151.37,30.30L152.49,32.30L153.01,34.46L153.19,34.46L154.11,34.21L155.24,33.73L167.82,116.72L168.52,116.35L168.55,117.31L168.32,117.95"/><path d="M150.65,93.50L150.63,93.50"/><path d="M155.21,30.64L154.01,28.57L152.32,27.14L150.14,26.36"/><path d="M152.47,34.36L152.40,34.32"/><path d="M153.01,34.46L162.49,96.95L161.95,96.85L161.88,96.81"/><path d="M168.56,116.29L168.52,116.35L155.92,33.36L155.24,33.73L155.04,32.78"/><path d="M155.92,33.35L155.86,33.07"/><path d="M159.16,102.93L160.45,102.37"/><path d="M160.28,101.18L160.17,101.19"/></g><g style="stroke:#000000;stroke-width:0.353"><path d="M155.86,33.07L168.56,116.29L168.61,117.14L168.36,117.91L168.32,117.95L167.42,118.52L166.56,118.89L166.38,118.96L165.24,119.21L163.58,119.28L162.31,119.18L161.22,119.02L138.72,114.79L137.10,114.40L136.15,114.07L135.13,113.21L134.88,112.86L134.70,112.42L134.56,111.69L131.70,92.83L131.47,91.08L121.99,28.60L121.84,27.20L121.87,26.51L122.44,24.78L122.29,24.91L122.45,24.58L122.69,24.23L123.45,23.47L124.29,22.71L125.57,22.12L127.13,22.14L125.87,22.09L125.81,22.12"/><path d="M121.89,26.45L121.92,25.97L122.29,24.91"/><path d="M123.20,25.48L124.34,24.89L124.21,24.88"/><path d="M122.44,24.78L123.13,24.23"/><path d="M122.43,24.82L122.42,24.87"/><path d="M123.14,24.13L123.81,24.01L125.49,24.07"/><path d="M124.34,24.89L125.75,24.95L148.14,29.17L149.64,29.66L151.04,30.74L151.97,32.45L152.40,34.32L161.88,96.81L161.85,97.59"/><path d="M127.13,22.14L127.75,22.14L150.14,26.36L152.19,27.02L154.07,28.54L155.21,30.64L155.55,31.95"/><path d="M132.57,96.25L132.77,96.94L132.34,95.77L131.94,94.08L132.56,96.23"/><path d="M133.62,97.58L132.49,95.99"/><path d="M134.16,98.35L134.20,98.40L133.04,97.22L132.34,95.77L132.45,95.92"/><path d="M134.39,97.29L134.47,97.37L133.02,95.36L133.27,95.74"/><path d="M139.93,72.11L139.89,72.17"/><path d="M150.65,93.50L151.77,92.94"/><path d="M151.38,93.14L151.28,93.15"/><path d="M154.38,29.09L155.36,30.84L155.61,31.97"/><path d="M155.84,33.07L155.92,33.36"/><path d="M160.83,102.21L159.16,102.93L157.82,102.92L159.13,102.62"/><path d="M158.03,101.85L160.11,101.61"/><path d="M159.68,101.66L160.53,100.99"/><path d="M161.03,101.74L160.45,102.37L161.52,101.25L162.22,99.77L162.66,98.64"/><path d="M161.51,99.83L161.62,99.66L160.11,101.49L160.27,101.35"/><path d="M161.57,101.15L162.24,99.61"/><path d="M161.52,101.25L162.04,100.63"/><path d="M161.95,96.85L161.57,99.56L161.36,99.98"/><path d="M161.26,100.09L161.62,99.23"/></g></g><g id="Actor_09.1"><g style="stroke:#000000;stroke-width:0.088"><path d="M126.92,21.79L128.11,21.90L133.74,22.96L133.64,23.07L133.62,23.23L150.49,26.40L152.42,27.05L154.24,28.52L155.48,30.76L155.80,32.04"/><path d="M128.11,21.90L128.02,22.01L127.99,22.18L127.90,22.17"/><path d="M127.99,22.18L133.62,23.23"/><path d="M144.87,25.34L144.89,25.18L144.98,25.07L133.74,22.96L134.54,22.80"/><path d="M156.19,32.18L156.13,31.84L155.51,30.01L154.54,28.40L153.25,27.20L151.82,26.46L150.61,26.13L144.98,25.07L145.86,24.91"/><path d="M150.61,26.13L150.51,26.23L150.49,26.40"/><path d="M156.11,33.16L156.07,33.15"/><path d="M156.08,33.16L157.19,40.53L157.35,40.53L157.49,40.48L168.97,116.10L169.02,116.61L169.00,117.05L168.92,117.41L168.77,117.70L168.56,117.89"/><path d="M157.19,40.53L168.67,116.15L168.59,116.80"/><path d="M158.34,39.63L157.49,40.48L156.40,33.26"/><path d="M168.52,117.43L168.49,117.63L168.45,117.64"/><path d="M169.69,114.39L169.82,115.25L168.97,116.10L168.82,116.15L168.67,116.15"/></g><g style="stroke:#000000;stroke-width:0.353"><path d="M125.53,22.11L125.65,22.02L126.19,21.88L125.35,22.18L125.23,22.28"/><path d="M126.19,21.88L126.92,21.79"/><path d="M126.32,21.87L127.30,21.68L127.85,21.66L130.26,22.00L150.09,25.72L152.90,26.36L154.43,27.19L155.62,28.32L156.50,29.80L156.47,29.74"/><path d="M151.82,26.46L152.53,26.83L153.19,27.23L153.15,27.21"/><path d="M153.25,27.20L154.42,28.36L155.17,29.47L154.54,28.40"/><path d="M155.17,29.47L155.71,30.69"/><path d="M157.31,32.57L157.10,31.46L156.58,29.92L156.22,29.33"/><path d="M168.07,103.62L168.16,104.23L163.86,75.62L158.25,38.95"/><path d="M158.61,41.35L158.40,39.99L158.78,42.42L158.61,41.35"/><path d="M158.40,39.99L157.63,34.33L157.51,33.65"/><path d="M159.46,46.94L159.33,46.05"/><path d="M169.82,115.25L169.63,113.92L169.70,114.39L169.93,115.39L169.88,115.86L169.57,116.85L169.37,117.18L168.56,117.89L168.18,118.04"/><path d="M168.34,105.44L168.16,104.23L169.63,113.92L169.44,112.71"/><path d="M168.71,117.72L168.95,116.99L169.02,116.61"/><path d="M169.50,113.17L169.80,115.14"/></g></g><g id="Actor_09.2"><g style="stroke:#000000;stroke-width:0.088"><path d="M136.62,81.20L136.48,79.84L136.48,78.54L136.62,77.30L136.90,76.15L137.31,75.10L137.84,74.18L138.49,73.39L139.26,72.75L140.11,72.28L141.05,71.96L142.06,71.82L143.11,71.85L144.20,72.06L145.31,72.43L146.42,72.97L147.51,73.66L148.57,74.50L149.58,75.47L150.51,76.56L151.37,77.74L152.13,79.01L152.78,80.33L153.32,81.70L153.72,83.08L154.00,84.46L154.16,86.55L153.97,88.50L153.45,90.24L152.62,91.69L151.51,92.79L150.16,93.52L148.63,93.83L146.96,93.72L145.23,93.19L143.51,92.27L141.85,90.98L140.33,89.38L139.00,87.52L137.91,85.49L137.11,83.35L136.62,81.20L136.55,81.14"/><path d="M137.85,73.95L137.84,73.97"/><path d="M140.16,72.02L141.11,71.70L142.14,71.55L143.21,71.59L144.32,71.79L145.45,72.18L146.58,72.72L147.69,73.43L148.67,74.21"/><path d="M141.66,68.07L141.47,68.03L141.31,67.91L140.04,67.08L139.33,65.52L139.59,64.14L140.68,63.75L140.78,63.48L140.95,63.39"/><path d="M140.11,63.52L140.78,63.48L144.36,64.15L144.29,64.23L144.25,64.42L145.52,65.25L146.23,66.81L146.41,66.81L146.52,66.77L146.55,67.40L146.16,68.37"/><path d="M141.66,82.67L141.49,82.11L141.42,81.24L141.48,80.43L141.68,79.69L141.99,79.07L142.42,78.57L142.95,78.22L143.56,78.02L144.23,77.99L144.94,78.12L145.66,78.41L146.36,78.86L147.03,79.43L147.65,80.13L148.18,80.91L148.61,81.76L148.94,82.65L149.13,83.54L149.15,83.55L149.14,85.34L148.54,86.75L147.46,87.56L146.04,87.65L144.51,87.00L143.11,85.72L142.55,84.84L142.04,84.00L141.46,82.11L142.88,82.28L144.08,82.46L145.54,82.71L146.79,82.96L147.99,83.24L149.13,83.54L149.12,85.32L148.53,86.72L147.45,87.53L146.04,87.62L144.52,86.98L143.12,85.71L142.05,84.00L141.66,82.67"/><path d="M141.46,82.11L141.39,81.23L141.46,80.41L141.65,79.68L141.97,79.05L142.41,78.55L142.94,78.19L143.55,77.99L144.23,77.96L144.94,78.10L145.66,78.39L146.37,78.84L147.04,79.42L147.66,80.11L148.19,80.90L148.63,81.76L148.95,82.65L149.15,83.55"/><path d="M141.50,71.51L140.65,71.75"/><path d="M141.31,67.91L144.89,68.58L145.12,68.61L145.90,68.28L146.25,67.39L146.23,66.81"/><path d="M140.68,63.75L144.25,64.42"/><path d="M144.89,68.58L144.97,68.71"/><path d="M146.20,65.79L145.75,65.06L145.08,64.46L144.36,64.15L144.45,64.10"/><path d="M145.37,93.30L145.42,93.32"/><path d="M146.55,66.75L146.53,66.77L146.50,66.69L146.26,65.90"/><path d="M150.45,76.03L149.79,75.27L148.85,74.37"/><path d="M151.01,76.75L151.61,77.58L152.08,78.36"/><path d="M151.76,92.90L152.89,91.77L153.73,90.29L154.26,88.53L154.45,86.55L154.29,84.41L154.18,84.45L154.00,84.46"/><path d="M153.73,82.07L154.01,83.01L154.29,84.41L154.33,84.40"/><path d="M153.42,81.15L153.05,80.22L152.65,79.40"/></g><g style="stroke:#000000;stroke-width:0.353"><path d="M136.55,81.14L136.43,78.78L136.46,79.72L136.55,81.14L137.24,83.94L137.91,85.49L138.45,86.67L139.00,87.52L140.09,89.16L142.06,91.24L143.50,92.28"/><path d="M136.43,78.78L136.41,78.45L136.60,77.13L136.83,76.02L137.30,74.89L137.79,74.03L138.51,73.15L139.29,72.50L140.47,71.84"/><path d="M139.94,72.11L139.90,72.16"/><path d="M146.39,68.27L145.31,68.73L145.22,68.73L144.97,68.71L141.47,68.03L140.61,67.70L140.04,67.08L139.73,66.73L139.26,65.46L139.32,64.57L139.36,64.31L139.60,63.91L140.11,63.52L140.38,63.38"/><path d="M150.85,93.38L150.97,93.32L150.38,93.63L148.82,93.95L148.62,93.96L147.13,93.84L146.48,93.72L145.37,93.30L144.24,92.80L143.70,92.42"/><path d="M152.50,92.41L151.76,92.90L150.97,93.32L151.45,93.07L151.44,93.07"/><path d="M151.76,92.90L151.45,93.07L151.49,93.04"/></g></g><g id="Actor_09.3"><g style="stroke:#000000;stroke-width:0.088"><path d="M125.94,24.99L125.77,25.08L125.66,25.35L124.35,25.28L123.28,25.82L122.87,27.17L123.00,28.83L132.48,91.31L145.35,93.73L143.75,92.92L142.20,91.80L140.74,90.42L139.42,88.81L138.27,87.01L137.34,85.10L136.64,83.11L136.21,81.12L136.39,81.11L136.50,81.07L136.77,82.02"/><path d="M123.00,28.83L122.93,28.79"/><path d="M123.28,25.59L124.39,25.01L125.77,25.08L148.27,29.30L149.77,29.80L151.05,30.80L151.94,32.45L152.35,34.24L161.83,96.73L161.54,96.77L148.67,94.35L147.04,94.23L145.35,93.73L145.40,93.55L145.48,93.47L144.76,93.03"/><path d="M125.66,25.35L148.16,29.57L148.18,29.41L148.27,29.30L148.37,29.25"/><path d="M128.14,35.15L131.61,58.00L152.06,61.84L148.17,36.20L127.72,32.36L128.14,35.15"/><path d="M132.41,91.27L132.48,91.31L132.85,93.63L133.19,94.93L133.77,96.04L134.61,96.78L135.58,97.14L158.08,101.36L158.12,101.54L158.25,101.56"/><path d="M135.58,97.14L135.62,97.32"/><path d="M135.74,97.34L135.75,97.34"/><path d="M136.21,81.12L136.06,79.70L136.06,78.34L136.21,77.04L136.50,75.83L136.93,74.74L137.49,73.77L138.17,72.95L138.97,72.28L139.87,71.78L140.85,71.45L141.90,71.30L143.01,71.34L144.15,71.55L145.31,71.94L146.50,72.52L147.62,73.23L148.72,74.11L149.78,75.13L150.76,76.26L151.65,77.50L152.42,78.78L153.13,80.22L153.69,81.65L154.12,83.09L154.41,84.54L154.34,84.48"/><path d="M140.10,71.89L139.21,72.38L138.43,73.04L137.76,73.85L137.21,74.80L136.79,75.88L136.50,77.06L136.36,78.34L136.36,79.68L136.50,81.07L136.54,81.05"/><path d="M137.45,84.41L137.61,84.99L138.00,85.68"/><path d="M139.20,87.82L139.65,88.63L139.95,88.96"/><path d="M141.66,68.07L141.49,68.16L141.39,68.42L140.56,68.08L139.81,67.39L139.23,66.47L138.92,65.45L138.93,64.48L139.25,63.72L139.84,63.28L140.60,63.23L144.18,63.91L144.26,64.03"/><path d="M139.72,66.70L139.50,66.34L139.21,65.40L139.22,64.50L139.51,63.80L140.06,63.40"/><path d="M146.57,66.84L146.64,66.89L146.68,67.50L146.38,68.51L145.67,69.07L144.96,69.10L145.00,68.91L145.08,68.83L141.49,68.16L140.73,67.84L140.03,67.20L139.75,66.75"/><path d="M141.39,68.42L144.96,69.10"/><path d="M140.76,63.35L140.60,63.23"/><path d="M143.32,92.15L142.38,91.58L142.10,91.28"/><path d="M145.73,68.80L145.08,68.83L145.26,68.73"/><path d="M144.18,63.91L145.00,64.25L145.76,64.94L146.33,65.87L146.64,66.89"/><path d="M154.41,84.54L154.55,85.95L154.41,88.62L153.69,90.91L152.44,92.71L150.75,93.88L148.71,94.35L148.67,94.35L148.66,94.29L148.68,94.17L148.75,94.09L147.14,93.97L145.48,93.47"/><path d="M148.75,94.09L150.79,93.62"/><path d="M148.16,29.57L149.53,30.00L150.83,30.99L151.68,32.58L152.06,34.29L161.54,96.77L161.38,98.99L160.88,100.13"/><path d="M152.38,34.23L152.06,34.29"/><path d="M158.08,101.36L159.11,101.38L160.09,100.98"/><path d="M160.13,101.17L159.77,101.46"/><path d="M161.66,98.95L161.13,100.26"/><path d="M161.87,96.71L161.83,96.73L161.78,98.05"/></g><g style="stroke:#000000;stroke-width:0.353"><path d="M158.54,101.55L158.25,101.56L135.62,97.32L134.61,96.94L134.19,96.65L133.73,96.15L133.18,95.13L132.78,93.62L132.70,93.19L122.93,28.79L122.80,27.10L123.23,25.68L123.28,25.59L123.92,25.26"/><path d="M123.92,25.25L124.59,24.90"/><path d="M141.90,71.45L141.06,71.57L140.10,71.89"/><path d="M140.93,71.61L139.45,72.35L139.37,72.46"/><path d="M144.97,64.30L144.26,64.03L140.76,63.35L140.06,63.40"/><path d="M140.29,63.38L140.26,63.45"/><path d="M154.37,88.58L154.51,85.93L154.34,84.48L154.08,83.09L153.10,80.23L151.63,77.53L149.76,75.16L147.61,73.28L145.32,72.00L143.03,71.39L140.88,71.51"/><path d="M143.49,71.51L143.19,71.46L142.31,71.43"/><path d="M145.38,72.03L145.14,71.95"/><path d="M144.93,64.26L145.84,65.10L146.45,66.26L146.44,66.22"/><path d="M146.63,67.44L146.38,68.29L145.73,68.80"/><path d="M146.23,68.41L145.97,68.45"/><path d="M146.63,67.47L146.57,66.84L146.43,66.22"/><path d="M150.93,30.89L149.57,29.85L148.27,29.30"/><path d="M150.45,93.60L151.74,92.96"/><path d="M154.37,88.51L153.68,90.71L152.46,92.47L150.79,93.62"/><path d="M158.13,101.54L159.18,101.55L159.77,101.46L160.53,100.98"/><path d="M159.65,101.43L160.22,101.12L160.85,100.60"/><path d="M161.60,98.68L161.63,98.63L160.88,100.13L160.09,100.98L161.03,99.55"/></g></g><g><g><path style="stroke:#ffffff;stroke-width:0.525" d="M160.47,197.23L149.55,116.79"/><path style="stroke:#000000;stroke-width:0.125;stroke-dasharray:3.1 2.1 1.0 2.1" d="M160.47,197.23L149.55,116.79"/></g></g><g id="PMI130.0"><g><path style="stroke:#ffffff;stroke-width:0.425" d="M226.84,128.43L221.90,128.43L187.18,141.90"/><path style="stroke:#05c3dd;stroke-width:0.125" d="M226.84,128.43L221.90,128.43L187.18,141.90"/></g><g><path style="stroke:#ffffff;stroke-width:0.150;fill:#05c3dd" d="M187.68,141.90L187.68,141.85L187.68,141.80L187.66,141.75L187.65,141.71L187.63,141.66L187.60,141.62L187.57,141.58L187.54,141.55L187.50,141.51L187.46,141.48L187.42,141.46L187.38,141.44L187.33,141.42L187.28,141.41L187.23,141.40L187.18,141.40L187.14,141.40L187.09,141.41L187.04,141.42L186.99,141.44L186.95,141.46L186.91,141.48L186.87,141.51L186.83,141.55L186.80,141.58L186.77,141.62L186.74,141.66L186.72,141.71L186.71,141.75L186.69,141.80L186.69,141.85L186.68,141.90L186.69,141.95L186.69,142.00L186.71,142.04L186.72,142.09L186.74,142.13L186.77,142.18L186.80,142.22L186.83,142.25L186.87,142.29L186.91,142.31L186.95,142.34L186.99,142.36L187.04,142.38L187.09,142.39L187.14,142.40L187.18,142.40L187.23,142.40L187.28,142.39L187.33,142.38L187.38,142.36L187.42,142.34L187.46,142.31L187.50,142.29L187.54,142.25L187.57,142.22L187.60,142.18L187.63,142.13L187.65,142.09L187.66,142.04L187.68,142.00L187.68,141.95z"/></g><g><path style="fill:#ffffff" d="M233.65,129.66L233.63,129.28L233.58,128.89L233.48,128.52L233.35,128.15L233.18,127.80L232.99,127.47L232.75,127.16L232.49,126.87L232.21,126.61L231.90,126.38L231.56,126.18L231.21,126.01L230.85,125.88L230.47,125.79L230.09,125.73L229.70,125.71L229.31,125.73L228.93,125.79L228.55,125.88L228.19,126.01L227.84,126.18L227.51,126.38L227.19,126.61L226.91,126.87L226.65,127.16L226.42,127.47L226.22,127.80L226.05,128.15L225.92,128.52L225.83,128.89L225.77,129.28L225.75,129.66L225.77,130.05L225.83,130.43L225.92,130.81L226.05,131.18L226.22,131.53L226.42,131.86L226.65,132.17L226.91,132.46L227.19,132.72L227.51,132.95L227.84,133.15L228.19,133.31L228.55,133.44L228.93,133.54L229.31,133.60L229.70,133.61L230.09,133.60L230.47,133.54L230.85,133.44L231.21,133.31L231.56,133.15L231.90,132.95L232.21,132.72L232.49,132.46L232.75,132.17L232.99,131.86L233.18,131.53L233.35,131.18L233.48,130.81L233.58,130.43L233.63,130.05z"/><path style="stroke:#ffffff;stroke-width:0.275" d="M233.65,129.66L233.63,129.28L233.58,128.89L233.48,128.52L233.35,128.15L233.18,127.80L232.99,127.47L232.75,127.16L232.49,126.87L232.21,126.61L231.90,126.38L231.56,126.18L231.21,126.01L230.85,125.88L230.47,125.79L230.09,125.73L229.70,125.71L229.31,125.73L228.93,125.79L228.55,125.88L228.19,126.01L227.84,126.18L227.51,126.38L227.19,126.61L226.91,126.87L226.65,127.16L226.42,127.47L226.22,127.80L226.05,128.15L225.92,128.52L225.83,128.89L225.77,129.28L225.75,129.66L225.77,130.05L225.83,130.43L225.92,130.81L226.05,131.18L226.22,131.53L226.42,131.86L226.65,132.17L226.91,132.46L227.19,132.72L227.51,132.95L227.84,133.15L228.19,133.31L228.55,133.44L228.93,133.54L229.31,133.60L229.70,133.61L230.09,133.60L230.47,133.54L230.85,133.44L231.21,133.31L231.56,133.15L231.90,132.95L232.21,132.72L232.49,132.46L232.75,132.17L232.99,131.86L233.18,131.53L233.35,131.18L233.48,130.81L233.58,130.43L233.63,130.05z"/><path style="stroke:#05c3dd;stroke-width:0.125;stroke-opacity:0.98" d="M233.65,129.66L233.63,129.28L233.58,128.89L233.48,128.52L233.35,128.15L233.18,127.80L232.99,127.47L232.75,127.16L232.49,126.87L232.21,126.61L231.90,126.38L231.56,126.18L231.21,126.01L230.85,125.88L230.47,125.79L230.09,125.73L229.70,125.71L229.31,125.73L228.93,125.79L228.55,125.88L228.19,126.01L227.84,126.18L227.51,126.38L227.19,126.61L226.91,126.87L226.65,127.16L226.42,127.47L226.22,127.80L226.05,128.15L225.92,128.52L225.83,128.89L225.77,129.28L225.75,129.66L225.77,130.05L225.83,130.43L225.92,130.81L226.05,131.18L226.22,131.53L226.42,131.86L226.65,132.17L226.91,132.46L227.19,132.72L227.51,132.95L227.84,133.15L228.19,133.31L228.55,133.44L228.93,133.54L229.31,133.60L229.70,133.61L230.09,133.60L230.47,133.54L230.85,133.44L231.21,133.31L231.56,133.15L231.90,132.95L232.21,132.72L232.49,132.46L232.75,132.17L232.99,131.86L233.18,131.53L233.35,131.18L233.48,130.81L233.58,130.43L233.63,130.05z"/><text xml:space="preserve" fill="#05c3dd" stroke-width="0" x="226.84" y="131.39" font-size="3.39" opacity="1.00" font-family="Exo 2">130</text></g></g><g id="PMI09.0"><g><path style="stroke:#ffffff;stroke-width:0.425" d="M227.62,56.19L222.68,56.19L153.89,31.87"/><path style="stroke:#05c3dd;stroke-width:0.125" d="M227.62,56.19L222.68,56.19L153.89,31.87"/></g><g><path style="stroke:#ffffff;stroke-width:0.150;fill:#05c3dd" d="M154.39,31.87L154.38,31.82L154.38,31.77L154.36,31.72L154.35,31.68L154.33,31.63L154.30,31.59L154.27,31.55L154.24,31.51L154.20,31.48L154.16,31.45L154.12,31.43L154.08,31.41L154.03,31.39L153.98,31.38L153.93,31.37L153.89,31.37L153.84,31.37L153.79,31.38L153.74,31.39L153.69,31.41L153.65,31.43L153.61,31.45L153.57,31.48L153.53,31.51L153.50,31.55L153.47,31.59L153.44,31.63L153.42,31.68L153.41,31.72L153.40,31.77L153.39,31.82L153.39,31.87L153.39,31.92L153.40,31.96L153.41,32.01L153.42,32.06L153.44,32.10L153.47,32.14L153.50,32.18L153.53,32.22L153.57,32.25L153.61,32.28L153.65,32.31L153.69,32.33L153.74,32.35L153.79,32.36L153.84,32.36L153.89,32.37L153.93,32.36L153.98,32.36L154.03,32.35L154.08,32.33L154.12,32.31L154.16,32.28L154.20,32.25L154.24,32.22L154.27,32.18L154.30,32.14L154.33,32.10L154.35,32.06L154.36,32.01L154.38,31.96L154.38,31.92z"/></g><g><path style="fill:#ffffff" d="M233.64,57.42L233.62,57.04L233.57,56.65L233.47,56.28L233.34,55.91L233.18,55.56L232.98,55.23L232.75,54.92L232.49,54.63L232.20,54.37L231.89,54.14L231.56,53.94L231.20,53.77L230.84,53.64L230.46,53.55L230.08,53.49L229.69,53.47L229.31,53.49L228.92,53.55L228.55,53.64L228.18,53.77L227.83,53.94L227.50,54.14L227.19,54.37L226.90,54.63L226.64,54.92L226.41,55.23L226.21,55.56L226.04,55.91L225.91,56.28L225.82,56.65L225.76,57.04L225.74,57.42L225.76,57.81L225.82,58.20L225.91,58.57L226.04,58.94L226.21,59.29L226.41,59.62L226.64,59.93L226.90,60.22L227.19,60.48L227.50,60.71L227.83,60.91L228.18,61.07L228.55,61.20L228.92,61.30L229.31,61.36L229.69,61.37L230.08,61.36L230.46,61.30L230.84,61.20L231.20,61.07L231.56,60.91L231.89,60.71L232.20,60.48L232.49,60.22L232.75,59.93L232.98,59.62L233.18,59.29L233.34,58.94L233.47,58.57L233.57,58.20L233.62,57.81z"/><path style="stroke:#ffffff;stroke-width:0.275" d="M233.64,57.42L233.62,57.04L233.57,56.65L233.47,56.28L233.34,55.91L233.18,55.56L232.98,55.23L232.75,54.92L232.49,54.63L232.20,54.37L231.89,54.14L231.56,53.94L231.20,53.77L230.84,53.64L230.46,53.55L230.08,53.49L229.69,53.47L229.31,53.49L228.92,53.55L228.55,53.64L228.18,53.77L227.83,53.94L227.50,54.14L227.19,54.37L226.90,54.63L226.64,54.92L226.41,55.23L226.21,55.56L226.04,55.91L225.91,56.28L225.82,56.65L225.76,57.04L225.74,57.42L225.76,57.81L225.82,58.20L225.91,58.57L226.04,58.94L226.21,59.29L226.41,59.62L226.64,59.93L226.90,60.22L227.19,60.48L227.50,60.71L227.83,60.91L228.18,61.07L228.55,61.20L228.92,61.30L229.31,61.36L229.69,61.37L230.08,61.36L230.46,61.30L230.84,61.20L231.20,61.07L231.56,60.91L231.89,60.71L232.20,60.48L232.49,60.22L232.75,59.93L232.98,59.62L233.18,59.29L233.34,58.94L233.47,58.57L233.57,58.20L233.62,57.81z"/><path style="stroke:#05c3dd;stroke-width:0.125;stroke-opacity:0.98" d="M233.64,57.42L233.62,57.04L233.57,56.65L233.47,56.28L233.34,55.91L233.18,55.56L232.98,55.23L232.75,54.92L232.49,54.63L232.20,54.37L231.89,54.14L231.56,53.94L231.20,53.77L230.84,53.64L230.46,53.55L230.08,53.49L229.69,53.47L229.31,53.49L228.92,53.55L228.55,53.64L228.18,53.77L227.83,53.94L227.50,54.14L227.19,54.37L226.90,54.63L226.64,54.92L226.41,55.23L226.21,55.56L226.04,55.91L225.91,56.28L225.82,56.65L225.76,57.04L225.74,57.42L225.76,57.81L225.82,58.20L225.91,58.57L226.04,58.94L226.21,59.29L226.41,59.62L226.64,59.93L226.90,60.22L227.19,60.48L227.50,60.71L227.83,60.91L228.18,61.07L228.55,61.20L228.92,61.30L229.31,61.36L229.69,61.37L230.08,61.36L230.46,61.30L230.84,61.20L231.20,61.07L231.56,60.91L231.89,60.71L232.20,60.48L232.49,60.22L232.75,59.93L232.98,59.62L233.18,59.29L233.34,58.94L233.47,58.57L233.57,58.20L233.62,57.81z"/><text xml:space="preserve" fill="#05c3dd" stroke-width="0" x="227.62" y="59.15" font-size="3.39" opacity="1.00" font-family="Exo 2">09</text></g></g><g><g/><g><text xml:space="preserve" fill="#000000" stroke-width="0" x="235.21" y="131.13" font-size="3.68" opacity="1.00" font-family="Exo 2">OPTIONAL</text></g></g><g><g/><g><text xml:space="preserve" fill="#000000" stroke-width="0" x="234.95" y="58.63" font-size="3.68" opacity="1.00" font-family="Exo 2">OPTIONAL</text></g></g><g/><g><g/><g><image x="46.999996" y="7.000000" height="37.024391" width="32.999996" xlink:href="99996610-FR-00_files/8f91ec4928f8a759_image_0.jpg"/><path style="stroke:#ffffff;stroke-width:0.125;stroke-opacity:0.98" d="M47.00,7.00L80.00,7.00L80.00,44.02L47.00,44.02z"/></g></g><g><g/><g><image x="7.000000" y="7.000000" height="37.024391" width="32.999996" xlink:href="99996610-FR-00_files/8f91ec4928f8a759_image_1.jpg"/></g></g><g><g/><g><image x="40.499996" y="18.999998" height="11.404249" width="6.000000" xlink:href="99996610-FR-00_files/8f91ec4928f8a759_image_2.jpg"/></g></g><g id="paperID" visibility="hidden" opacity="0.00" transform="scale(0.000100)"><path style="stroke:#000000;stroke-width:0.500;fill:#e6e6e6;fill-rule:evenodd" d="M-2000.00,-2000.00L2316.00,-2000.00L2316.00,2223.00L-2000.00,2223.00zM0.00,0.00L316.00,0.00L316.00,223.00L0.00,223.00z"/><path style="fill:#000000;fill-opacity:0.118" d="M3.00,223.00L316.00,223.00L316.00,3.00L319.00,3.00L319.00,226.00L3.00,226.00z"/></g><g id="hotspot.0" onmouseover="ShowHotSpot(evt,'0')" onmouseout="HideHotSpot(evt,'0')" onmousemove="ShowToolTip(evt,'0',&quot;000&quot;)" opacity="0"><a xlink:href="000.svg"><path style="fill:#6fffff;fill-rule:evenodd" d="M79.75,43.89L46.93,43.89L46.93,7.14L79.75,7.14z"/></a></g><g id="hotspot.1" onmouseover="ShowHotSpot(evt,'1')" onmouseout="HideHotSpot(evt,'1')" onmousemove="ShowToolTip(evt,'1',&quot;9996087-00&quot;)" opacity="0"><a xlink:href="9996087-00.SVG"><path style="fill:#6fffff;fill-rule:evenodd" d="M39.97,43.89L7.14,43.89L7.14,7.14L39.97,7.14z"/></a></g><g id="hotspot.2" onmouseover="ShowHotSpot(evt,'2')" onmouseout="HideHotSpot(evt,'2')" onmousemove="ShowToolTip(evt,'2',&quot;09&quot;)" opacity="0"><path style="fill:#ffed00;fill-rule:evenodd" d="M144.91,24.69L153.28,26.53L155.15,27.81L156.20,29.37L157.24,32.04L157.19,32.61L156.89,32.83L157.57,33.23L156.85,33.33L157.58,33.51L158.00,37.26L169.52,113.42L169.78,116.13L169.52,116.91L168.89,117.59L166.57,118.93L164.98,119.18L162.71,119.18L153.81,117.61L137.31,114.48L135.24,113.41L134.69,112.66L121.88,27.57L121.87,26.34L122.54,24.39L124.76,22.42L126.51,21.81L129.21,21.81zM232.90,55.02L233.21,55.73L233.04,55.84L233.02,56.42L233.21,56.52L233.21,58.39L232.37,59.88L230.61,60.99L228.74,60.99L227.11,60.01L226.30,58.73L226.30,56.17L226.80,55.02L226.75,54.56L228.03,53.73L228.48,53.65L228.57,53.80L230.78,53.80L230.87,53.65L231.32,53.73zM228.75,61.25L228.04,61.07L228.74,60.99zM157.58,33.51L156.85,33.33L157.57,33.23zM233.21,56.52L233.02,56.42L233.04,55.84L233.21,55.73zM233.47,58.38L233.21,58.39L233.21,56.52L233.48,56.53zM230.60,61.25L228.75,61.25L228.74,60.99L230.61,60.99zM157.58,33.51L157.57,33.23L158.29,33.33zM230.87,53.65L228.48,53.65L228.57,53.50L230.78,53.50zM233.48,56.53L233.21,56.52L233.21,55.73L233.37,55.81zM222.58,57.47L222.47,57.33L225.29,57.41zM233.63,58.27L233.47,58.38L233.48,56.53L233.63,56.63zM233.38,59.09L233.21,58.39L233.47,58.38zM230.60,61.25L230.61,60.99L231.31,61.07zM230.49,61.41L228.86,61.41L228.75,61.25L230.60,61.25zM155.47,32.19L154.77,32.00L155.35,32.01zM155.47,32.46L155.47,32.19L156.20,32.28zM155.47,32.72L154.75,32.54L155.47,32.46zM155.59,32.90L155.47,32.72L156.19,32.81zM230.78,53.80L228.57,53.80L228.48,53.65L230.87,53.65z"/></g><g id="hotspot.3" onmouseover="ShowHotSpot(evt,'3')" onmouseout="HideHotSpot(evt,'3')" onmousemove="ShowToolTip(evt,'3',&quot;130&quot;)" opacity="0"><path style="fill:#ffed00;fill-rule:evenodd" d="M232.90,127.26L233.21,127.97L233.04,128.08L233.02,128.66L233.21,128.76L233.21,130.63L232.37,132.12L230.61,133.23L228.74,133.23L227.11,132.25L226.30,130.97L226.30,128.41L226.80,127.26L226.75,126.80L228.03,125.97L228.48,125.89L228.57,126.04L230.78,126.04L230.87,125.89L231.32,125.97zM175.27,133.32L187.05,135.93L188.66,136.68L189.41,137.76L190.28,140.56L189.49,140.81L188.70,141.07L187.99,141.16L188.70,141.35L188.71,141.61L188.00,141.70L188.59,141.78L188.71,141.61L189.41,141.51L189.51,141.33L190.20,141.43L190.48,141.93L190.73,144.67L190.36,145.34L189.08,146.15L186.79,146.14L172.53,143.54L173.95,152.17L175.02,153.72L178.68,154.51L178.96,155.02L181.29,171.27L181.31,173.98L180.94,174.39L178.94,175.54L178.94,177.02L182.34,200.58L182.60,204.07L182.08,205.64L181.19,206.84L178.61,208.71L175.71,209.48L172.40,209.48L147.25,204.78L144.93,203.97L143.33,202.16L142.81,200.33L134.97,154.25L134.95,153.01L135.93,151.90L136.97,151.11L139.73,149.93L145.95,137.88L145.95,136.52L149.63,131.05L150.85,130.44L153.46,129.64L155.90,129.65zM228.75,133.49L228.04,133.31L228.74,133.23zM233.21,128.76L233.02,128.66L233.04,128.08L233.21,127.97zM233.47,130.62L233.21,130.63L233.21,128.76L233.48,128.77zM230.60,133.49L228.75,133.49L228.74,133.23L230.61,133.23zM190.30,140.82L189.49,140.81L190.28,140.56zM189.51,141.08L188.70,141.07L189.49,140.81zM188.70,141.35L187.99,141.16L188.70,141.07zM230.87,125.89L228.48,125.89L228.57,125.74L230.78,125.74zM233.48,128.77L233.21,128.76L233.21,127.97L233.37,128.05zM221.42,129.81L221.54,129.67L225.29,129.65zM233.63,130.51L233.47,130.62L233.48,128.77L233.63,128.87zM219.72,130.51L219.14,130.44L219.86,130.35zM233.38,131.33L233.21,130.63L233.47,130.62zM215.27,132.08L214.69,132.01L215.41,131.92zM230.60,133.49L230.61,133.23L231.31,133.31zM230.49,133.65L228.86,133.65L228.75,133.49L230.60,133.49zM210.82,133.65L210.24,133.58L210.96,133.49zM206.37,135.22L205.80,135.15L206.51,135.06zM201.14,137.06L200.56,136.98L201.27,136.90zM196.69,138.63L196.11,138.55L196.82,138.47zM192.24,140.20L191.66,140.12L192.37,140.04zM190.30,140.82L190.28,140.56L191.01,140.64zM189.51,141.08L189.49,140.81L190.30,140.82zM189.51,141.33L188.70,141.35L188.70,141.07L189.51,141.08zM230.78,126.04L228.57,126.04L228.48,125.89L230.87,125.89zM189.41,141.51L188.71,141.61L188.70,141.35L189.51,141.33zM188.59,141.78L188.00,141.70L188.71,141.61z"/></g></g></svg>
