<?xml version="1.0" encoding="UTF-8" standalone="no"?>
<svg xmlns="http://www.w3.org/2000/svg" xmlns:xlink="http://www.w3.org/1999/xlink" width="316.000mm" height="223.000mm" viewBox="0.000000 0.000000 316.000000 223.000000" stroke-linejoin="round" stroke-linecap="round" fill="none" fill-rule="evenodd"><desc>Composer Export</desc><script type="text/ecmascript"><![CDATA[
if(typeof(top) != "undefined")
{
	top.ShowPaper = ShowPaper;
}
function ShowHotSpot(evt,hotspotid)
{
	var svgDocument = evt.target.ownerDocument;
	var strId = "hotspot."+hotspotid;
	var hotspot = svgDocument.getElementById(strId);
	if(hotspot)
		hotspot.setAttribute("opacity",".5");
}
function HideHotSpot(evt,hotspotid)
{
	var svgDocument = evt.target.ownerDocument;
	var strId = "hotspot."+hotspotid;
	var hotspot = svgDocument.getElementById(strId);
	if(hotspot)
		hotspot.setAttribute("opacity","0");

	var toolTip = svgDocument.getElementById('ToolTip');
	if(toolTip)
		toolTip.setAttribute("visibility","hidden");
}
function ShowToolTip(evt,hotspotid,strTooltip)
{
	if(strTooltip=="")
	return;

	// change text
	var svgDocument = evt.target.ownerDocument;
	var tiptext = svgDocument.getElementById('ToolTipText');
	if( !tiptext )
	return;
	tiptext.firstChild.nodeValue = " " + strTooltip + "  " ;

	// show tooltip before, else some refresh issue

	var toolTip = svgDocument.getElementById('ToolTip');
	if(!toolTip)
	return;

	toolTip.setAttribute("visibility","visible");
	toolTip.setAttribute("opacity",".95");

	// move tooltip
	// get viewbox

	var root = svgDocument.documentElement;
	var vbox = (root.getAttribute("viewBox")).split(' ');
	var x0 = parseFloat(vbox[0]);
	var y0 = parseFloat(vbox[1]);
	var vboxW = parseFloat(vbox[2]);
	var vboxH = parseFloat(vbox[3]);

	// get default width of svg

	var strW = root.getAttribute("width");
	var svgW = parseFloat(strW);
	if(strW.indexOf('mm') != -1)
	svgW *= 3.779;

	var strH = root.getAttribute("height");
	var svgH = parseFloat(strH);
	if(strH.indexOf('mm') != -1)
	svgH *= 3.779;  	// 96 dpi  -> 96/25.4 = 3.779

	// update the viewbox / width / height if svg is embedded in html with zoom fit all
	var realx0 = x0;
	var realy0 = y0;
	var realvboxW = vboxW;
	var realvboxH = vboxH;
	var realsvgW = svgW;
	var realsvgH = svgH;

	if ((typeof(top) == "undefined") || (typeof(top.svgctl1) != "undefined")) // embedded in html
	{
		// get window size in pxl

		svgW = window.innerWidth;
		svgH = window.innerHeight;

		// calculate real viewbox

		realsvgW = svgW;
		realsvgH = svgH;
		if((svgW / svgH) > (vboxW / vboxH))
		{
			realvboxW = (vboxH * svgW) / svgH;
			realvboxH = vboxH;
			realx0 = x0 - (realvboxW - vboxW)/2 ;
		}
		else
		{
			realvboxH = (vboxW * svgH) / svgW;
			realvboxW = vboxW;
			realy0 = y0 - (realvboxH - vboxH)/2 ;
		}
	}

	// get user zoom/pan

	var newScale = root.currentScale;
	var translation = root.currentTranslate;

	// transform pxl to user unit

	var xPos = (((evt.clientX+10- translation.x)/newScale) * realvboxW)/realsvgW  + realx0 ;
	var yPos = (((evt.clientY+5- translation.y)/newScale) * realvboxH)/ realsvgH  + realy0 ;
	var scaleForWidth = ( (1 / newScale) * realvboxH) / realsvgH;

	// move tooltip

	toolTip.setAttribute("transform", "translate(" + xPos + "," + yPos + ")" );

	// resize tooltip

	var fontsize = 12;
	tiptext.setAttribute("font-size",fontsize*scaleForWidth);
	tiptext.setAttribute("y", fontsize*scaleForWidth);
	var tipBG = svgDocument.getElementById('ToolTipBG');
	var outline = tiptext.getBBox();
	if(tipBG)
	{
		tipBG.setAttribute("stroke-width", 1*scaleForWidth);
		tipBG.setAttribute("width", Number(outline.width) );
		tipBG.setAttribute("height", Number(outline.height) + fontsize*.5*scaleForWidth );
	}
	var ToolTipShadow = svgDocument.getElementById('ToolTipShadow');
	if(ToolTipShadow)
	{
		ToolTipShadow.setAttribute("width", Number(outline.width) );
		ToolTipShadow.setAttribute("height", Number(outline.height) + fontsize*.5*scaleForWidth );
		ToolTipShadow.setAttribute("x", 3*scaleForWidth);
		ToolTipShadow.setAttribute("y", 3*scaleForWidth);
	}
}
function ShowPaper()
{
  var svgDocument = getDocument();
  var paper = svgDocument.getElementById("paperID");
  if(paper)
  {
    paper.setAttribute("transform","scale(1)");
    paper.setAttribute("opacity","1");
    paper.setAttribute("visibility","visible");
  }
  var svg = svgDocument.getRootElement();
  if(svg)
  {
    svg.setAttribute("width","326.000mm");
    svg.setAttribute("height","233.000mm");
    svg.setAttribute("viewBox","-5.000000 -5.000000 326.000000 233.000000");
  }
}
]]></script><defs/><g><path style="fill:#ffffff" d="M315.84,222.92L0.08,222.92L0.08,0.08L315.84,0.08z"/><path style="fill:#c0c0c0" d="M127.49,64.84L128.18,65.00L129.50,66.02L142.84,78.08L142.84,78.96L133.55,97.96L116.91,113.50L112.62,117.33L110.98,117.46L106.26,117.32L100.95,117.08L86.82,103.73L86.57,102.88L86.57,101.53L87.59,99.11L91.25,91.25L91.66,90.28L92.06,90.13L91.82,89.76L92.30,87.99L90.98,86.48L90.76,85.61L90.77,84.53L91.25,82.35L93.38,78.46L95.34,75.98L97.43,73.61L99.81,71.28L103.47,68.66L106.09,67.61L108.02,67.60L109.86,68.93L110.52,68.94L114.96,64.73L115.41,64.58L120.67,64.59z"/><path style="fill:#c0c0c0" d="M144.68,96.65L145.98,98.23L146.00,99.19L145.71,101.22L144.65,103.56L142.70,106.85L139.44,111.17L138.00,112.88L133.94,116.67L130.41,119.42L127.13,121.10L125.36,121.40L124.25,121.26L121.63,118.92L121.38,118.31L121.35,117.63L121.25,117.54L121.38,116.20L122.41,113.25L125.04,108.82L128.45,104.63L131.22,101.64L133.41,99.65L137.84,96.49L140.11,95.35L141.06,95.21L142.91,95.22L143.11,95.34z"/><path style="fill:#c0c0c0" d="M161.14,111.33L162.74,112.87L164.58,114.44L165.85,116.04L166.79,119.34L166.78,120.41L166.64,121.62L164.73,125.73L160.88,131.04L158.15,133.81L155.02,136.70L151.61,139.04L149.19,140.09L148.41,140.24L146.48,140.13L143.62,139.32L138.13,134.34L137.83,133.86L137.57,132.10L138.10,129.72L140.21,125.44L137.08,119.95L137.05,117.94L138.78,114.96L140.64,112.90L143.32,110.87L144.20,110.65L145.54,110.65L150.94,113.19L151.60,113.16L155.30,110.80L157.55,110.13L159.42,110.12z"/><path style="fill:#c0c0c0" d="M176.85,125.72L178.70,127.53L179.36,128.49L179.35,130.36L178.94,132.09L177.37,135.23L175.01,138.89L170.82,143.87L167.71,146.77L164.05,149.66L160.54,151.65L158.64,152.01L157.56,151.87L156.71,151.35L155.38,150.07L154.88,149.78L154.58,149.30L154.48,147.09L154.85,145.42L157.13,140.90L160.38,136.56L162.87,133.81L166.82,129.91L171.08,126.85L174.14,125.45L176.34,125.45z"/><path style="fill:#c0c0c0" d="M184.46,141.14L199.64,155.54L201.97,157.66L206.30,162.01L206.31,163.08L205.90,164.54L204.77,166.30L202.26,169.02L199.01,171.57L198.59,171.50L198.20,171.26L196.41,172.59L195.70,173.97L191.96,176.78L189.94,176.76L183.91,171.27L170.85,159.72L167.42,156.87L167.42,155.37L167.94,153.81L175.16,143.22L177.29,140.90L180.23,138.88L181.57,138.80z"/><path style="fill:#c0c0c0" d="M210.35,168.39L215.36,173.58L215.73,174.32L215.76,175.00L215.93,175.05L217.43,176.48L220.29,178.33L222.15,180.17L222.82,180.19L223.71,179.86L225.65,182.98L225.72,183.38L226.07,183.50L228.43,185.90L231.57,188.79L231.63,189.44L231.47,189.62L231.54,189.93L231.89,189.74L233.93,191.67L233.93,192.56L233.01,194.01L230.93,195.85L229.72,195.86L224.22,190.89L221.77,189.66L221.86,188.83L221.41,188.44L221.59,187.99L220.94,187.95L218.90,187.03L218.97,186.41L218.20,185.65L218.03,185.11L218.21,184.86L217.49,184.33L216.12,183.29L214.55,181.20L213.77,180.67L213.47,180.19L210.61,179.37L206.62,175.78L206.20,174.89L204.33,173.09L204.32,171.86L205.79,169.67L208.01,167.70L209.32,167.58z"/><path style="fill:#c0c0c0" d="M207.47,179.90L207.97,181.49L208.50,182.27L211.93,185.38L215.06,187.49L218.20,190.45L218.64,189.32L218.75,189.30L220.57,192.71L225.81,197.69L225.81,198.58L225.00,199.88L222.85,201.91L221.62,201.87L219.53,200.03L215.84,196.92L212.25,195.22L212.20,194.46L212.44,193.74L210.11,191.66L208.28,189.30L205.37,186.45L204.59,185.92L202.48,185.42L199.35,182.52L198.57,182.00L198.56,180.50L200.16,178.17L202.12,176.49L202.56,176.34L203.64,176.36z"/><path style="fill:#000020" d="M92.06,90.13L91.66,90.28L91.82,89.76z"/><path style="fill:#000020" d="M128.23,114.43L127.81,114.56L127.94,114.14z"/><path style="fill:#000020" d="M121.38,118.31L121.25,117.54L121.35,117.63z"/><path style="fill:#000020" d="M166.78,120.41L166.79,119.34L166.90,119.45z"/><path style="fill:#000020" d="M179.35,130.36L179.36,128.49L179.46,128.59z"/><path style="fill:#000020" d="M206.31,163.08L206.30,162.01L206.43,162.10z"/><path style="fill:#000020" d="M215.93,175.05L215.76,175.00L215.73,174.32z"/><path style="fill:#000020" d="M203.64,176.36L202.56,176.34L203.55,176.23z"/><path style="fill:#000020" d="M221.29,182.75L221.59,182.80L221.64,183.10L221.34,183.04z"/><path style="fill:#000020" d="M226.07,183.50L225.72,183.38L225.65,182.98L225.82,183.02z"/><path style="fill:#000020" d="M218.21,184.86L218.03,185.11L217.68,184.86L217.49,184.33z"/><path style="fill:#000020" d="M220.94,187.95L221.59,187.99L221.41,188.44L221.06,188.28z"/><path style="fill:#000020" d="M231.89,189.74L231.54,189.93L231.47,189.62L231.63,189.44z"/><path style="fill:#000020" d="M215.33,192.97L214.99,193.06L215.08,192.72z"/><path style="fill:#000020" d="M212.25,195.22L212.09,195.15L212.20,194.46z"/><path style="fill:#ffffff" d="M139.25,102.33L138.37,104.35L135.49,108.53L133.03,111.04L130.41,113.13L128.23,114.43L127.94,114.14L129.66,110.81L131.73,108.17L133.81,105.81L136.83,103.33L138.83,102.12z"/><path style="fill:#ffffff" d="M167.50,138.16L166.63,139.17L166.63,138.67L167.46,138.04z"/><g id="Actor_140.0"><g style="stroke:#000000;stroke-width:0.088"><path d="M208.32,176.61L208.17,176.46L208.11,176.22L208.14,175.88L208.27,175.48L208.51,174.99L208.83,174.45L209.23,173.89L209.68,173.33L210.18,172.79L210.70,172.30L211.22,171.86L211.72,171.50L211.93,171.37L212.21,171.23L212.46,171.12L212.68,171.06L213.01,171.05L213.22,171.17"/><path d="M221.10,180.61L219.05,178.70L218.44,179.14L217.91,179.62L217.42,180.13L217.01,180.62L216.68,181.08L216.43,181.47L216.25,181.79L216.13,182.06L215.39,181.06L215.00,180.56L214.59,180.09L213.67,179.18L212.69,178.30L211.28,176.94L210.78,176.54L210.51,176.36L210.22,176.20L209.60,175.92L208.95,175.69L208.27,175.48"/><path d="M211.72,171.50L207.85,167.97"/><path d="M216.13,182.06L216.02,182.39L215.98,182.70L216.06,182.95"/><path d="M219.05,178.70L219.46,178.46L219.86,178.32L220.14,178.32"/><path d="M219.39,186.60L220.74,187.12"/><path d="M219.45,182.08L220.00,181.72"/><path d="M222.27,180.26L221.72,180.61"/><path d="M227.51,193.17L227.46,192.82L227.62,192.30L227.96,191.66L228.46,190.96L229.06,190.28L229.71,189.66L230.35,189.19L224.70,183.94L222.62,180.41"/><path d="M228.06,191.87L228.88,192.61"/><path d="M231.57,188.96L231.32,188.82L230.90,188.90L230.35,189.19"/></g><g style="stroke:#000000;stroke-width:0.353"><path d="M211.26,177.70L210.78,177.32L210.31,177.05L209.71,176.86L208.32,176.61L204.37,173.02L204.24,172.69L204.32,172.18L204.61,171.51L205.07,170.75L205.68,169.95L206.39,169.18L207.13,168.50L207.85,167.97L208.49,167.63L208.99,167.50L209.32,167.60L213.22,171.17L213.31,171.38L213.64,172.64L213.80,173.03"/><path d="M211.22,177.67L211.68,178.13L212.14,178.61L212.67,179.12L213.65,179.99"/><path d="M213.60,179.93L214.51,180.82L214.48,180.79"/><path d="M213.57,172.49L213.57,172.48L213.82,173.07L214.17,173.60L214.60,174.04"/><path d="M214.51,180.82L215.34,181.86L216.06,182.95L227.51,193.17L227.76,193.31L228.18,193.23L228.74,192.94L229.37,192.46L230.02,191.85L230.63,191.16L231.12,190.46L231.47,189.82L231.62,189.31L231.57,188.96L225.81,183.56"/><path d="M214.57,174.02L216.10,175.28L217.04,176.18L217.77,176.81"/><path d="M219.92,186.39L219.71,186.50L219.39,186.60L218.82,186.97L221.89,188.15"/><path d="M219.01,177.69L220.32,178.42L222.52,180.48"/><path d="M218.54,177.37L219.09,177.74"/><path d="M223.11,185.34L221.03,181.81L221.42,181.40L221.83,181.02L222.24,180.69L222.62,180.41L222.97,180.21L223.29,180.08L223.56,180.03L223.75,180.06L225.83,183.59L225.63,183.56L225.37,183.61L225.05,183.74L224.70,183.94L224.31,184.22L223.91,184.55L223.50,184.93L223.11,185.34L219.45,182.08L219.99,181.51L220.56,181.00L221.10,180.61L221.59,180.34L221.99,180.22L222.27,180.26L222.52,180.49"/><path d="M222.00,180.88L221.72,180.61L221.51,180.66L221.25,180.77L220.96,180.94L220.65,181.16L220.32,181.42L220.00,181.72L222.05,183.54"/><path d="M228.01,192.91L227.84,192.72L227.86,192.34L228.09,191.80L228.50,191.18L228.94,190.65L229.03,190.54L229.62,189.96L230.21,189.52L230.71,189.26L231.07,189.22L231.25,189.40L231.22,189.79L231.14,189.99L230.99,190.33L230.59,190.95L230.06,191.59L229.46,192.17L228.88,192.61L228.38,192.87L228.01,192.91"/></g></g><g id="Actor_142.0"><g style="stroke:#000000;stroke-width:0.088"><path d="M123.82,120.79L123.47,120.15L123.36,119.29L123.47,118.22L123.81,116.97L124.38,115.54L125.14,114.02L126.11,112.38L127.25,110.67L128.54,108.93L129.96,107.20L131.47,105.51L133.05,103.89L134.66,102.38L136.27,101.01L137.85,99.80L139.36,98.78L140.78,97.98L142.07,97.40L140.06,95.56"/><path d="M128.06,114.64L130.07,116.47L129.22,116.71L128.53,116.72L128.02,116.50"/><path d="M130.07,116.47L131.07,116.02L132.17,115.35L133.35,114.49L134.57,113.48L135.80,112.33L136.99,111.08L138.11,109.78L139.12,108.46L140.00,107.16L140.72,105.92L141.25,104.78L141.59,103.77L141.71,102.92L141.63,102.27L141.32,101.82"/><path d="M142.07,97.40L143.22,97.06L144.16,96.97L144.19,96.97L144.96,97.13"/><path d="M145.53,97.53L145.36,97.40"/></g><g style="stroke:#000000;stroke-width:0.353"><path d="M145.37,97.38L145.53,97.53L145.87,98.16L145.99,99.03L145.88,100.09L145.54,101.35L144.98,102.76L144.20,104.30L143.24,105.94L142.10,107.65L140.81,109.38L140.70,109.51L139.39,111.12L137.88,112.81L136.30,114.43L134.69,115.94L133.08,117.31L131.50,118.52L129.99,119.54L128.57,120.34L127.27,120.92L126.13,121.26L125.16,121.35L124.39,121.19L123.82,120.79L121.81,118.95L121.46,118.31L121.34,117.45L121.46,116.38L121.80,115.13L122.25,114.00L122.36,113.72L123.13,112.18L124.10,110.54L125.24,108.83L126.53,107.09L128.01,105.29L129.46,103.67L131.04,102.05L132.65,100.54L134.26,99.17L135.84,97.96L137.35,96.94L138.77,96.14L140.06,95.56L141.21,95.22L142.18,95.13L142.95,95.29L143.52,95.69L144.67,96.74"/><path d="M128.02,116.50L127.72,116.05L127.63,115.39L127.76,114.55L128.09,113.54L128.24,113.23L128.63,112.40L129.35,111.16L130.23,109.86L131.24,108.54L132.36,107.23L133.55,105.99L134.78,104.84L136.00,103.82L137.18,102.97L137.40,102.83L138.28,102.30L139.28,101.84L140.13,101.61L140.82,101.60L141.32,101.82"/><path d="M127.73,114.73L128.06,114.64L129.05,114.18L130.16,113.51L131.34,112.65L132.56,111.64L133.32,110.92L133.78,110.49L134.97,109.24L136.09,107.94L137.11,106.62L137.99,105.32L138.71,104.08L139.24,102.94L139.58,101.93L139.60,101.75"/></g></g><g id="Actor_140.1"><g style="stroke:#000000;stroke-width:0.088"><path d="M198.76,180.46L202.63,184.00L202.44,184.46L202.36,184.84L202.38,185.13L202.51,185.32"/><path d="M202.63,184.00L202.74,183.77L202.93,183.45L203.14,183.12L203.37,182.78L203.88,182.15L204.40,181.58L204.89,181.10L205.33,180.72L205.71,180.43L206.04,180.21L206.35,180.84L206.67,181.45L207.03,182.02L207.24,182.29L207.45,182.54L207.92,182.99L208.94,183.82L209.43,184.25L210.38,185.16L211.33,186.01L211.82,186.39L212.33,186.75L213.36,187.41L213.08,187.60L212.76,187.85L212.38,188.17L211.97,188.57L211.53,189.05L211.10,189.59L210.72,190.16L210.43,190.69L210.27,191.15L210.24,191.50L210.33,191.72"/><path d="M206.04,180.21L206.34,180.04L206.66,179.89L206.97,179.80L207.25,179.80L207.46,179.91"/><path d="M212.55,192.50L210.46,190.63"/><path d="M221.74,201.87L221.73,201.48L221.92,200.94L216.19,195.78L212.44,194.12"/><path d="M212.69,193.04L212.43,193.59"/><path d="M213.78,190.74L213.52,191.29"/><path d="M213.36,187.41L213.71,187.22L214.07,187.08L214.40,187.07"/><path d="M218.49,189.93L219.23,191.53"/><path d="M218.35,190.71L218.31,190.61"/><path d="M220.17,192.41L218.76,189.35"/><path d="M221.92,200.94L222.30,200.28L222.82,199.58L223.44,198.90L224.09,198.31L224.72,197.87L225.25,197.62L225.64,197.58L225.85,197.76"/><path d="M224.59,198.20L225.34,198.89"/></g><g style="stroke:#000000;stroke-width:0.353"><path d="M204.56,185.81L203.97,185.61L202.74,185.41L202.51,185.32L198.69,181.82L198.51,181.56L198.53,181.09L198.76,180.46L199.18,179.72L199.75,178.92L200.44,178.14L200.64,177.94L201.17,177.43L201.91,176.85L202.57,176.45L202.98,176.31L203.12,176.26L203.50,176.30L207.46,179.92L207.57,180.17L207.72,180.81L207.89,181.39"/><path d="M204.42,185.73L205.04,186.08L205.49,186.44"/><path d="M213.25,186.44L214.40,187.07L214.61,187.24L216.59,189.06L220.17,192.41L225.85,197.76L225.86,198.15L225.66,198.70L225.29,199.35L224.76,200.05L224.15,200.73L223.49,201.32L222.87,201.76L222.34,202.01L221.95,202.05L216.06,196.84L215.98,196.68L215.98,196.44L216.05,196.14L216.19,195.78L216.40,195.39L216.68,194.96L217.01,194.52L217.37,194.09L213.78,190.74L213.28,191.34L212.86,191.94L212.55,192.50L212.36,192.98L212.32,193.36L212.43,193.59L210.33,191.72L209.59,190.62L208.79,189.60L207.86,188.69L206.87,187.83L205.48,186.42"/><path d="M207.81,181.22L208.07,181.81L208.42,182.34L208.86,182.81"/><path d="M210.12,183.85L209.44,183.29"/><path d="M208.81,182.76L209.76,183.56L210.40,184.08L210.39,184.07"/><path d="M211.33,184.97L210.40,184.08"/><path d="M211.28,184.93L212.27,185.77"/><path d="M216.06,196.84L212.32,195.18L212.23,195.02L212.23,194.78L212.30,194.48L212.44,194.12L212.65,193.73L212.93,193.30L213.26,192.86L213.62,192.43L217.37,194.09"/><path d="M212.43,193.59L212.63,193.77"/><path d="M215.71,193.36L213.52,191.29L213.26,191.64L213.04,191.98L212.87,192.30L212.75,192.59L212.69,192.84L212.69,193.04L212.95,193.27"/><path d="M212.26,185.77L213.40,186.52"/><path d="M218.29,190.65L218.45,190.23L218.49,189.93L218.76,189.35L220.18,192.42"/><path d="M222.12,201.56L222.08,201.23L222.25,200.74L222.60,200.13L223.10,199.49L223.68,198.89L224.27,198.39L224.81,198.07L224.89,198.05L225.22,197.96L225.47,198.07L225.50,198.40L225.34,198.89L224.98,199.50L224.49,200.14L223.91,200.75L223.31,201.24L222.78,201.56L222.58,201.61L222.36,201.67L222.12,201.56"/></g></g><g id="Actor_145.0"><g style="stroke:#000000;stroke-width:0.088"><path d="M190.23,176.74L190.04,176.46L189.99,176.03L190.10,175.47L167.54,155.47"/><path d="M167.78,154.64L190.35,174.64L190.43,174.69L190.62,174.72L190.74,174.68L190.89,174.30L191.08,173.89L191.34,173.45L191.64,172.99L191.48,172.96L191.30,172.84L190.97,173.33L190.70,173.80L190.49,174.24L190.35,174.64L190.10,175.47L190.31,175.55L190.51,175.50L190.75,174.67"/><path d="M168.85,152.62L191.30,172.84L196.92,164.63L197.10,164.75L197.26,164.77L197.63,164.26L198.03,163.74L198.46,163.22L198.92,162.72L199.39,162.23L199.87,161.78L200.35,161.36L200.83,160.99L201.29,160.66L201.73,160.39L202.14,160.17L202.51,160.02L202.85,159.94L203.13,159.92L203.36,159.96L203.54,160.07L206.11,162.15L206.24,162.29L206.30,162.49L206.29,162.76L206.22,163.08L206.30,162.98"/><path d="M206.11,162.15L206.19,161.94L206.11,161.75L203.54,159.67L203.35,159.55L203.10,159.51L202.80,159.53L202.45,159.62L202.06,159.78L201.62,160.00L201.16,160.29L200.67,160.64L200.17,161.03L199.66,161.47L199.16,161.95L198.66,162.46L198.18,162.99L197.72,163.54L197.31,164.07L196.92,164.63L174.46,144.42"/><path d="M181.72,138.98L192.82,149.50"/><path d="M190.51,175.50L190.40,176.03L190.45,176.44L190.63,176.71L190.96,176.82L191.40,176.78L191.96,176.58L192.60,176.23L193.30,175.75L195.59,174.03"/><path d="M197.18,170.51L196.98,171.03L196.67,171.61L196.27,172.24L195.79,172.89L195.25,173.53L194.66,174.14L194.06,174.70L193.46,175.18L192.90,175.57L192.38,175.86L191.93,176.02L191.56,176.05L191.30,175.96L191.15,175.75L191.12,175.42L191.20,174.98L191.28,174.74L191.53,174.20L191.86,173.62L192.29,173.00L192.78,172.37L193.04,172.05L193.60,171.45L193.89,171.17L194.48,170.65L194.91,170.31L195.33,170.01L195.85,169.71L196.09,169.60L196.31,169.51L196.51,169.46L196.69,169.44L196.85,169.44L196.98,169.48L197.09,169.54L197.17,169.64L197.23,169.76L197.26,169.91L197.26,170.09L197.23,170.28L197.18,170.51L197.14,170.53L196.95,170.56L196.77,170.47L196.82,170.27L196.85,170.08L196.85,169.92L196.82,169.78L196.77,169.66L196.69,169.57"/><path d="M191.23,174.95L191.20,174.98"/><path d="M191.30,175.56L191.54,175.64L191.88,175.61L192.30,175.46L192.78,175.20L193.31,174.83L193.87,174.38L194.43,173.86L194.97,173.29L195.48,172.69L195.93,172.09L196.30,171.50L196.58,170.96L196.77,170.47L195.90,169.71"/><path d="M191.64,172.99L197.26,164.77"/><path d="M193.30,175.75L193.24,175.81"/><path d="M203.54,160.07L203.62,159.87L203.54,159.67L193.51,150.16"/><path d="M195.80,173.72L195.72,173.88L195.96,173.10L196.05,172.91L196.26,172.64L196.39,172.49L196.59,172.32L196.56,172.36"/><path d="M196.59,172.32L198.85,170.62L199.03,170.51L199.17,170.48L199.24,170.52L199.24,170.65L199.15,170.69L199.04,170.70L198.92,170.68L198.86,170.63"/><path d="M196.23,172.69L196.20,172.70"/><path d="M197.05,167.21L196.90,166.99L196.87,166.66L196.95,166.23L197.03,165.99L197.27,165.45L197.61,164.86L197.81,164.56L198.27,163.93L198.79,163.30L199.35,162.70L199.94,162.15L200.52,161.66L200.80,161.45L201.34,161.09L201.84,160.84L202.06,160.76L202.26,160.71L202.44,160.68L202.60,160.69L202.73,160.73L202.84,160.79L202.92,160.89L202.98,161.01L203.01,161.16L203.01,161.33L202.98,161.54L202.92,161.75L202.73,162.27L202.42,162.86L202.02,163.49L201.54,164.14L201.00,164.78L200.41,165.39L199.81,165.95L199.21,166.43L198.64,166.82L198.13,167.10L197.68,167.26L197.31,167.30L197.05,167.21"/><path d="M197.04,166.81L197.29,166.89L197.63,166.86L198.05,166.71L198.53,166.45L199.06,166.08L199.62,165.63L200.18,165.11L200.72,164.54L201.23,163.94L201.68,163.34L202.05,162.75L202.33,162.21L202.52,161.72L202.70,161.80L202.88,161.78L202.92,161.75"/><path d="M196.95,166.23L196.98,166.20"/><path d="M198.82,170.65L198.63,171.36L198.28,171.06"/><path d="M199.24,170.65L199.04,171.39L198.84,171.44L198.72,171.42L198.63,171.36L198.63,171.43"/><path d="M198.87,171.53L199.05,171.42L199.04,171.39"/><path d="M199.05,171.42L199.11,171.39L201.41,169.67L201.36,169.73"/><path d="M199.17,170.48L199.09,170.55L198.99,170.58"/><path d="M199.16,169.02L199.08,169.47L199.11,169.82L199.27,170.04L199.54,170.14L199.93,170.10L200.40,169.93L200.94,169.64L201.54,169.23L202.17,168.72L202.80,168.14L203.41,167.49L203.98,166.82L204.30,166.38L204.48,166.14L204.90,165.48L205.23,164.86L205.43,164.32L205.49,164.10L205.52,163.90L205.52,163.72L205.50,163.57L205.45,163.44L205.38,163.34L205.28,163.27L205.16,163.22L205.01,163.19L204.85,163.20L204.66,163.24L204.23,163.39L203.74,163.65L203.20,164.01L202.92,164.22L202.34,164.69L201.76,165.24L201.20,165.83L200.68,166.44L200.21,167.06L199.80,167.67L199.48,168.25L199.24,168.78L199.16,169.02L199.20,168.99"/><path d="M199.26,169.64L199.52,169.73L199.88,169.70L200.32,169.54L200.83,169.26L201.39,168.88L201.97,168.40L202.56,167.86L203.13,167.25L203.67,166.62L204.14,165.99L204.53,165.37L204.83,164.80L205.03,164.29L205.11,163.89L205.11,163.73L205.09,163.59L205.05,163.47L204.98,163.37"/><path d="M206.22,163.08L205.98,163.91L205.73,164.55L205.36,165.27L204.86,166.05L204.27,166.84L203.60,167.64L202.88,168.39L202.14,169.08L201.41,169.67"/><path d="M202.44,160.82L202.52,160.91L202.57,161.03L202.60,161.17L202.60,161.33L202.57,161.51L202.52,161.72L201.65,160.95"/><path d="M205.43,164.32L205.40,164.34L205.20,164.37L205.03,164.29L204.11,163.47"/><path d="M206.06,163.75L205.98,163.91"/></g><g style="stroke:#000000;stroke-width:0.353"><path d="M192.98,149.29L184.29,141.05L181.72,138.98L181.31,138.80L180.71,138.87L179.94,139.17L179.06,139.70L178.09,140.42L177.10,141.30L176.13,142.30L175.24,143.35L174.46,144.42L168.85,152.62L168.38,153.34L168.02,154.03L167.78,154.64L167.54,155.47L167.41,156.16L167.51,156.66L190.23,176.74L190.45,176.86L190.79,176.91L190.97,176.91L191.40,176.83L191.90,176.64L192.47,176.34L193.24,175.81L195.59,174.03L195.67,173.96L195.80,173.72L196.03,172.99"/><path d="M191.23,174.95L191.42,174.46L191.71,173.90L192.09,173.30L192.52,172.71L193.05,172.06L193.61,171.47L194.18,170.92L194.76,170.44L195.31,170.04L195.64,169.85L195.83,169.74L196.28,169.55"/><path d="M191.23,175.51L191.20,175.20L191.27,174.85"/><path d="M191.30,175.56L191.23,175.46"/><path d="M193.67,149.95L206.11,161.75L206.28,161.94L206.36,162.22L206.38,162.40L206.35,162.77L206.30,162.98L205.96,164.08L205.70,164.68L205.34,165.33L204.89,166.03L204.37,166.74L203.78,167.44L203.16,168.13L202.50,168.77L201.84,169.35L201.36,169.73L199.02,171.45L198.93,171.51L198.87,171.53L198.76,171.51L198.63,171.43L198.24,171.09"/><path d="M195.96,173.10L196.23,172.69L196.39,172.51L196.56,172.36L198.85,170.62"/><path d="M196.76,169.58L196.49,169.54L196.13,169.61"/><path d="M196.69,169.57L196.68,169.57"/><path d="M197.04,166.81L196.97,166.71"/><path d="M196.98,166.75L196.95,166.45L197.02,166.10"/><path d="M196.98,166.20L197.17,165.71L197.46,165.15L197.82,164.58L198.29,163.93L198.80,163.31L199.52,162.56L199.93,162.17L200.51,161.69L201.09,161.27L201.57,160.99L202.03,160.80"/><path d="M198.99,170.58L198.94,170.59"/><path d="M198.97,170.58L198.79,170.67"/><path d="M199.20,168.99L199.38,168.50L199.66,167.95L200.02,167.36L200.45,166.75L200.95,166.13L201.49,165.54L202.05,164.98L202.62,164.47L203.18,164.03L203.72,163.68L204.20,163.43"/><path d="M199.30,169.77L199.18,169.55L199.16,169.23L199.23,168.88"/><path d="M199.18,169.52L199.26,169.64"/><path d="M202.51,160.83L202.24,160.79L201.88,160.86"/><path d="M202.43,160.82L202.44,160.82"/><path d="M204.98,163.37L204.93,163.33"/><path d="M204.15,163.45L204.47,163.34L204.81,163.30L205.06,163.37"/></g></g><g id="Actor_140.2"><g style="stroke:#000000;stroke-width:0.088"><path d="M214.74,181.10L214.47,180.84L214.01,180.37L213.54,179.92L213.04,179.52L212.77,179.35L212.48,179.20L211.85,178.95L211.18,178.76L210.50,178.60L210.47,178.83L210.49,179.04L210.59,179.22"/><path d="M210.50,178.60L210.57,178.33L210.71,177.98L210.93,177.56L210.98,177.48"/><path d="M214.50,173.94L214.87,173.78L215.20,173.72L215.45,173.75L215.61,173.89"/><path d="M218.44,185.65L218.36,185.50L218.34,185.32L218.37,185.12L218.17,184.83"/><path d="M218.37,185.12L218.40,185.03"/><path d="M230.85,190.84L232.29,192.17L231.63,192.74L231.01,193.41L230.47,194.11L230.07,194.78L229.85,195.35L229.84,195.75L230.02,195.96"/><path d="M231.59,195.04L230.64,194.18"/><path d="M232.29,192.17L232.90,191.75L233.42,191.52L233.79,191.52"/></g><g style="stroke:#000000;stroke-width:0.353"><path d="M212.67,179.73L212.07,179.54L210.78,179.32L210.59,179.22L206.68,175.63L206.60,175.25L206.64,175.08"/><path d="M212.54,179.66L213.15,180.00"/><path d="M213.10,179.96L213.36,180.17L213.22,180.05"/><path d="M213.36,180.17L213.59,180.35L214.06,180.82L214.51,181.30L214.98,181.76L215.67,182.36"/><path d="M213.46,180.25L213.60,180.36"/><path d="M213.56,180.33L213.59,180.35"/><path d="M215.96,175.17L215.81,174.65L215.68,174.13L215.61,173.89L213.45,171.91"/><path d="M219.49,186.57L218.44,185.65L217.71,184.55L217.35,184.10"/><path d="M231.58,189.45L233.79,191.52L233.97,191.73L233.96,192.13L233.74,192.70L233.34,193.37L232.80,194.07L232.18,194.74L231.52,195.31L230.91,195.73L230.39,195.96L230.02,195.96L220.77,187.72"/><path d="M222.25,189.04L221.68,189.49L224.06,190.65"/><path d="M226.62,184.32L225.62,182.90L225.44,182.94"/><path d="M230.58,195.59L230.28,195.54L230.18,195.27L230.29,194.82L230.60,194.24L231.06,193.60L231.62,192.97L232.22,192.44L232.78,192.07L233.23,191.89L233.53,191.94L233.63,192.21L233.52,192.66L233.21,193.24L232.75,193.88L232.19,194.51L231.59,195.04L231.03,195.41L230.58,195.59"/></g></g><g id="Actor_143.0"><g style="stroke:#000000;stroke-width:0.088"><path d="M87.41,104.20L87.35,104.08L87.37,103.90L87.47,103.67L96.40,85.11L110.27,97.86L101.27,116.55L101.18,116.78L101.16,116.97L101.21,117.08"/><path d="M101.27,116.55L87.47,103.67L87.11,103.27L86.87,102.87L86.69,102.34L86.65,101.85L86.72,101.37"/><path d="M92.69,87.59L91.25,86.25L91.11,86.10L90.89,85.69"/><path d="M91.62,91.11L94.00,84.05L93.82,84.43L93.81,84.16L93.61,83.88L93.44,84.23L93.63,84.52L93.64,84.80L93.82,84.43"/><path d="M108.99,68.26L108.80,68.14L108.58,68.04L108.34,67.98L108.07,67.95L107.78,67.96L107.12,68.06L106.76,68.16L105.98,68.45L105.12,68.86L104.20,69.39L103.22,70.03L102.22,70.77L100.66,72.05L99.62,73.00L98.59,74.01L97.09,75.61L96.14,76.72L95.58,77.41L94.82,78.41L94.03,79.52L93.00,81.15L92.43,82.18L91.97,83.16L91.61,84.06L91.37,84.89L91.30,85.26L91.24,85.95L91.25,86.25L91.34,86.70L91.52,87.07L91.78,87.35"/><path d="M93.51,85.18L93.43,84.97L93.37,84.57L93.44,84.23"/><path d="M94.34,85.47L94.75,84.26L94.86,84.40"/><path d="M94.60,84.03L94.74,83.89L94.87,83.70L94.97,83.48L95.03,83.28L94.67,83.14L94.31,83.13L94.00,83.25L93.79,83.52L93.99,83.78L94.00,84.05L94.12,83.91L94.28,83.87L94.60,84.03L94.75,84.26L94.99,84.13"/><path d="M93.61,83.88L93.79,83.52"/><path d="M95.83,82.63L97.28,83.99L97.01,84.26L96.76,84.55L96.55,84.84L96.40,85.11L95.95,84.64L95.61,84.13L95.42,83.63L95.44,83.19"/><path d="M101.85,77.04L101.08,76.41L101.25,76.22L101.38,76.00L101.44,75.81L101.44,75.66L101.25,75.48L101.12,75.08L101.16,74.86L101.31,74.66L102.11,73.92L101.92,73.86L101.66,73.68L100.90,74.38L100.63,74.73L100.52,75.15L100.55,75.58L100.71,75.98L99.89,76.83L98.43,78.49L97.74,79.33L97.09,80.18L96.47,81.03L95.90,81.86L95.03,83.28L95.30,83.49"/><path d="M114.79,65.06L115.06,64.94L115.39,64.91L115.76,64.98L116.20,65.17L116.57,65.40L116.98,65.73L130.99,78.35L111.14,96.74L97.28,83.99L116.98,65.73L117.25,65.50L117.51,65.33L117.73,65.22L117.91,65.18L117.36,64.80L116.72,64.56L116.04,64.53"/><path d="M101.08,76.41L100.71,75.98L101.08,75.72L101.20,75.59L101.25,75.48"/><path d="M102.48,76.46L102.03,76.15L101.44,75.66L103.51,75.50"/><path d="M100.90,74.38L101.14,74.58L101.31,74.66L104.68,74.40L105.79,73.39L102.11,73.92L102.32,73.78L102.58,73.73"/><path d="M101.28,74.03L101.54,74.22L101.71,74.29"/><path d="M101.66,73.68L102.03,73.44L102.47,73.34L102.92,73.38L103.35,73.54L103.45,73.61"/><path d="M109.71,69.35L109.44,69.22L109.22,69.22L109.08,69.28L109.07,69.45L109.18,69.69L109.39,69.98L108.70,70.17L108.10,70.40L107.46,70.71L106.78,71.08L106.07,71.51L105.33,72.01L104.57,72.56L103.35,73.54L103.28,73.63"/><path d="M104.54,112.92L105.36,114.15"/><path d="M104.15,74.91L104.15,74.89L104.11,74.95"/><path d="M105.87,73.27L105.76,73.40L104.68,74.40L104.36,74.66L104.15,74.89"/><path d="M106.16,112.35L106.50,112.40L107.19,112.41L107.95,112.33L109.25,112.04L110.16,111.73L111.14,111.33L112.35,110.75L113.75,109.98L115.10,109.14L116.50,108.20L118.37,106.82L119.62,105.83L120.68,104.94L122.03,103.76L123.91,102.00L125.34,100.57L126.71,99.11L128.52,97.06L129.75,95.56L131.20,93.30L132.06,91.84L132.80,90.44L133.53,88.81L133.87,87.92L134.18,86.95L134.41,85.94L134.52,85.04L134.50,84.96L134.27,85.73L133.85,86.79L133.20,88.17L132.54,89.37L131.77,90.63L130.93,91.92L130.00,93.23L128.41,95.29L126.80,97.21L125.17,99.00L124.20,100.00L122.79,101.39L121.47,102.61L120.47,103.48L119.46,104.33L118.10,105.41L116.52,106.56L115.29,107.39L113.95,108.21L112.83,108.83L111.69,109.38L110.61,109.81L109.60,110.13L108.66,110.32L107.80,110.39L107.04,110.32L106.36,110.10"/><path d="M134.50,84.96L134.29,84.93L134.01,85.81L133.64,86.75L133.17,87.76L132.60,88.84L131.94,89.98L131.20,91.14L130.38,92.35L129.48,93.58L128.51,94.84L127.49,96.09L126.42,97.34L125.29,98.58L124.11,99.81L122.91,100.99L121.69,102.13L120.45,103.23L119.02,104.43L117.59,105.53L116.19,106.54L114.81,107.45L113.49,108.23L112.23,108.90L111.03,109.43L109.90,109.82L108.88,110.07L107.95,110.17L107.12,110.13L106.39,109.93"/><path d="M133.38,81.09L133.04,82.25L132.56,83.47L132.13,84.40L131.63,85.38L131.06,86.40L130.05,88.04L129.35,89.10L128.41,90.44L127.40,91.79L126.21,93.28L125.34,94.34L124.40,95.41L123.07,96.87L121.48,98.51L120.09,99.86L119.11,100.77L118.13,101.64L116.51,103.01L115.37,103.92L114.28,104.74L112.81,105.79L111.13,106.87L109.83,107.62L108.89,108.10L108.00,108.52L106.65,109.05"/><path d="M120.45,103.23L119.51,102.37L118.08,103.56L116.48,104.79L115.25,105.68L113.87,106.58L112.55,107.37L111.29,108.03L110.08,108.57L108.97,108.96L107.94,109.21L107.00,109.31L106.58,109.29"/><path d="M131.55,81.47L131.33,82.41L131.13,83.02L130.62,84.28L130.17,85.21L129.64,86.19L128.73,87.72L128.04,88.78L127.41,89.69L126.59,90.82L125.24,92.55L124.17,93.84L122.75,95.45L121.48,96.79L120.18,98.09L119.20,99.03L118.20,99.93L116.85,101.09L115.14,102.47L113.81,103.46L112.52,104.35L111.26,105.15L109.83,105.95L108.50,106.59L107.39,107.02"/><path d="M131.30,81.58L131.22,81.99L130.91,82.99L130.46,84.10L129.89,85.29L129.20,86.55L128.38,87.88L127.46,89.27L126.44,90.68L125.33,92.11L124.12,93.59L122.88,95.01L121.56,96.42L120.18,97.80L118.78,99.14L117.36,100.40L115.93,101.59L114.49,102.71L113.09,103.71L111.72,104.61L110.39,105.41L109.12,106.07L107.93,106.60L107.51,106.75"/><path d="M129.90,82.30L129.52,83.24L128.95,84.43L128.26,85.69L127.44,87.03L126.52,88.40L125.50,89.81L124.39,91.26L123.19,92.71L121.93,94.14L120.61,95.56L119.24,96.95L117.84,98.28L116.42,99.54L114.98,100.74L113.55,101.85L112.15,102.85L110.78,103.75L109.45,104.55L108.27,105.16"/><path d="M128.05,83.41L127.24,84.77L126.03,86.60L124.98,88.06L123.87,89.52L122.77,90.88L121.17,92.73L120.33,93.66L119.16,94.89L117.32,96.72L115.84,98.10L114.34,99.42L112.84,100.65L111.36,101.79L110.14,102.66L109.37,103.17"/><path d="M109.22,69.22L109.53,69.38"/><path d="M109.43,70.02L109.39,69.98L109.48,69.97"/><path d="M109.44,69.22L109.63,69.23L109.84,69.30"/><path d="M110.27,97.86L110.42,97.60L110.63,97.30L110.88,97.00L111.14,96.74"/><path d="M109.89,69.34L109.81,69.37L109.85,69.44L109.97,69.52"/><path d="M109.88,69.34L110.41,69.11"/><path d="M109.63,69.23L109.86,69.34"/><path d="M111.30,100.20L112.15,99.56L113.49,98.49L115.26,96.97L117.00,95.34L118.79,93.54L120.39,91.80L121.47,90.54L122.52,89.25L123.53,87.93L124.77,86.20L125.35,85.33"/><path d="M111.67,99.67L112.83,98.76L114.26,97.57L113.66,97.01"/><path d="M111.37,99.30L111.59,97.79"/><path d="M113.70,113.89L115.30,114.00"/><path d="M114.26,97.57L115.70,96.30L117.10,94.96L118.46,93.59L119.79,92.17L121.05,90.73L122.24,89.28L123.35,87.85L124.37,86.43L124.83,85.73"/><path d="M116.42,99.54L117.36,100.40"/><path d="M120.06,89.92L118.84,91.31L117.52,92.73L115.76,94.48"/><path d="M135.36,71.47L128.68,65.48L117.91,65.18L131.92,77.80L131.75,77.83L131.52,77.94L131.26,78.12L130.99,78.35"/><path d="M119.51,102.37L121.04,101.01L122.52,99.59L123.97,98.12L125.37,96.59L126.69,95.06L127.92,93.52L129.07,91.99L130.11,90.50L131.02,89.07L131.81,87.69L132.47,86.40L132.98,85.20L133.34,84.11L133.54,83.13L133.59,82.29L133.41,81.06L133.42,80.77"/><path d="M128.79,65.52L128.68,65.48L128.23,65.16"/><path d="M130.76,99.63L130.22,99.17"/><path d="M129.95,95.22L130.69,94.20L132.06,92.18L133.26,90.22L133.78,89.28L134.27,88.35L134.69,87.45L135.07,86.59L135.39,85.76L135.65,84.98L135.86,84.23L136.01,83.53L136.11,82.88L136.14,82.27L136.12,81.72L136.07,81.36L135.88,80.73L135.76,80.52"/><path d="M130.11,95.79L129.93,95.64L129.75,95.56"/><path d="M130.23,80.32L130.98,81.01"/><path d="M133.61,95.95L132.35,96.43"/><path d="M131.92,77.80L142.76,78.10L142.88,78.14"/><path d="M133.16,84.41L133.18,84.35"/><path d="M134.46,80.56L134.29,81.10L134.21,81.79L134.28,82.32L133.49,81.59L133.44,81.50"/><path d="M134.52,85.04L134.66,84.24L134.70,83.42L134.68,83.05L134.58,83.10L134.50,83.09L134.44,83.05L134.28,82.32L134.35,82.36L134.43,82.37L134.53,82.32L134.68,83.05"/><path d="M134.29,84.93L134.41,84.23L134.46,83.42L134.44,83.05"/><path d="M134.53,82.32L134.46,81.84L134.52,81.24L134.72,80.52"/><path d="M136.08,72.11L142.76,78.10"/><path d="M137.93,82.89L136.64,81.71L136.44,81.62L136.22,81.65L136.12,81.72"/><path d="M140.56,81.43L139.25,80.72L139.25,80.59"/><path d="M138.75,81.16L139.25,80.72"/><path d="M140.54,80.47L139.80,80.08"/></g><g style="stroke:#000000;stroke-width:0.353"><path d="M136.11,72.07L142.88,78.14L142.93,78.26L142.91,78.44L142.82,78.67L133.82,97.36L133.67,97.63L133.46,97.92L133.21,98.22L132.95,98.48L113.10,116.87L112.83,117.10L112.57,117.28L112.34,117.39L112.17,117.42L101.33,117.13L101.21,117.08L87.40,104.20L87.03,103.76L86.77,103.26L86.72,103.14L86.59,102.60L86.59,101.95L86.68,101.44L86.78,101.19"/><path d="M104.48,74.61L104.72,74.38L95.83,82.63L95.56,82.94L86.89,100.92L86.72,101.37"/><path d="M110.09,69.25L108.99,68.26L108.81,68.13L108.41,67.91L107.99,67.74L107.49,67.65L107.04,67.63L106.45,67.67L105.78,67.83L105.39,67.96L104.66,68.23L103.86,68.62L103.00,69.11L102.09,69.71L101.15,70.40L100.19,71.17L99.22,72.02L98.25,72.93L97.30,73.90L96.37,74.91L95.49,75.94L94.65,76.99L93.88,78.03L93.18,79.06L92.57,80.06L92.04,81.03L91.61,81.94L91.28,82.78L90.96,83.94L90.84,84.64L90.83,85.25L90.89,85.69L91.00,86.20L91.45,87.01L92.53,88.04"/><path d="M91.14,92.11L93.64,84.80"/><path d="M93.58,84.76L93.59,84.94"/><path d="M102.58,73.73L105.87,73.27"/><path d="M103.73,115.66L103.59,115.11L103.53,114.49L103.53,113.80L105.16,112.38L105.15,113.03L105.22,113.63L105.36,114.15L103.73,115.66"/><path d="M105.99,73.21L105.79,73.39L105.99,73.21"/><path d="M105.93,73.26L114.86,64.99L115.43,64.67L116.04,64.53L127.18,64.82L127.79,64.96L128.01,65.06L127.89,65.00"/><path d="M105.87,73.27L105.96,73.23"/><path d="M112.74,98.21L113.36,97.37L114.97,95.39L116.67,93.43L118.45,91.53L120.27,89.71L122.11,88.00L123.96,86.42L125.78,84.99L127.55,83.73L129.25,82.66L130.85,81.79L132.33,81.13L133.67,80.70L134.85,80.49L135.86,80.52L136.68,80.78L137.31,81.27L137.72,81.97L137.74,82.04L137.93,82.89L137.92,84.01L137.70,85.31L137.64,85.50L137.26,86.78L136.62,88.39L135.79,90.12L135.15,91.28L134.76,91.97L133.57,93.89L132.18,95.90L130.73,97.85L129.12,99.84L127.42,101.79L125.64,103.69L123.82,105.51L123.40,105.90L121.97,107.22L120.13,108.81L118.31,110.24L116.54,111.50L114.84,112.57L113.24,113.44L111.77,114.09L110.43,114.53L109.24,114.73L108.23,114.70L107.41,114.44L106.78,113.96L106.37,113.25L106.16,112.33L106.17,111.21L106.39,109.91L106.83,108.44L107.47,106.83L108.30,105.09L109.33,103.25L110.52,101.33L111.88,99.36L112.74,98.21L111.88,99.37"/><path d="M106.26,112.79L106.75,112.85L107.41,112.84L108.12,112.76L108.88,112.60L109.70,112.36L110.56,112.05L111.47,111.67L112.41,111.21L111.87,111.48"/><path d="M107.00,109.31L106.58,109.27"/><path d="M106.60,109.27L107.24,109.25L107.61,109.20L108.97,108.96"/><path d="M108.12,112.76L107.41,112.84"/><path d="M126.86,93.14L127.20,92.73L125.86,94.37L124.44,96.00L122.96,97.60L121.42,99.17L119.83,100.69L118.23,102.12L116.63,103.47L115.01,104.73L113.43,105.88L111.90,106.90L110.40,107.80L108.97,108.56L107.44,109.22"/><path d="M107.53,109.21L107.83,109.16"/><path d="M108.39,109.05L108.05,109.12"/><path d="M110.10,108.48L110.12,108.47L109.11,108.84L108.08,109.12"/><path d="M129.78,82.37L129.54,82.95L129.11,83.88L128.44,85.15L127.87,86.12L127.37,86.92L126.65,88.00L125.88,89.09L125.05,90.21L124.18,91.32L123.33,92.36L122.36,93.48L121.38,94.57L120.46,95.54L118.50,97.48L116.81,99.04L114.86,100.68L113.73,101.56L112.63,102.38L110.89,103.56L109.66,104.31L108.34,105.02"/><path d="M109.23,108.80L109.11,108.84"/><path d="M108.92,103.99L110.34,103.05L111.92,101.90L113.51,100.65L115.13,99.29L116.74,97.85L118.31,96.35L119.85,94.78L121.35,93.17L122.77,91.53L124.10,89.90L125.35,88.27L126.50,86.66L127.54,85.10L128.44,83.60L128.80,82.94"/><path d="M109.53,69.38L109.88,69.34L110.41,69.11"/><path d="M110.27,108.40L110.82,108.16L111.87,107.63L113.40,106.76L114.41,106.12L115.32,105.49L116.42,104.70L117.35,103.99L115.01,105.70"/><path d="M110.59,108.27L109.88,108.56"/><path d="M113.02,95.98L113.33,95.60L114.09,95.77L113.15,96.95L112.24,98.12L111.37,99.30L110.48,99.27L111.39,98.05L113.02,95.98L112.34,96.82"/><path d="M109.89,69.33L109.84,69.30"/><path d="M112.25,115.81L113.11,114.21L114.05,113.70L115.03,113.11L116.04,112.47L115.30,114.00L114.25,114.67L113.23,115.27L112.25,115.81"/><path d="M112.41,111.21L113.38,110.69L114.39,110.10L115.43,109.44L116.49,108.73L117.57,107.96L118.65,107.15L119.75,106.28L120.86,105.35L121.96,104.39L123.40,103.06L125.19,101.33L126.24,100.24L127.26,99.14L128.24,98.03L129.19,96.91L130.11,95.79L130.89,94.72L132.34,92.62L132.99,91.59L133.60,90.57L134.16,89.58L134.67,88.62L135.12,87.69L135.52,86.79L135.86,85.93L136.14,85.10L136.36,84.35L136.52,83.60L136.62,82.92L136.66,82.29L136.64,81.71L136.59,81.35L136.39,80.69"/><path d="M112.22,102.66L112.52,102.45L112.23,102.66"/><path d="M112.52,102.45L114.13,101.19L115.74,99.84L117.53,98.21L117.35,98.39"/><path d="M113.02,106.15L113.43,105.88"/><path d="M123.56,98.15L124.55,97.07L123.56,98.14L122.01,99.72L120.44,101.22L118.84,102.66L117.22,104.02L115.95,105.01"/><path d="M117.49,103.88L117.35,103.99L118.47,103.09L119.43,102.28L120.92,100.95L122.04,99.89L123.11,98.83L124.41,97.47L125.43,96.34L126.79,94.75L127.57,93.78L128.68,92.33L129.47,91.23L130.20,90.15L131.06,88.80L131.47,88.08L130.20,90.03L129.05,91.63L127.80,93.27L126.46,94.91L125.05,96.54L124.55,97.07"/><path d="M117.53,98.21L118.92,96.88L120.46,95.32L121.94,93.72L123.36,92.09L124.71,90.44L125.95,88.81L127.10,87.21L128.14,85.64L128.46,85.11"/><path d="M118.77,91.21L116.91,93.17"/><path d="M124.85,101.66L125.19,101.33"/><path d="M125.05,96.54L125.56,95.95"/><path d="M128.01,92.99L127.81,93.26"/><path d="M127.20,92.72L128.45,91.10L129.59,89.50L130.63,87.93L131.54,86.42L132.32,84.99L132.96,83.64L133.46,82.38L133.53,82.17"/><path d="M129.83,80.56L130.32,80.27L128.79,81.22L128.05,82.76L129.06,82.11L130.03,81.53L129.18,82.04"/><path d="M135.40,71.44L128.79,65.52L128.32,65.18L128.01,65.06L128.23,65.16"/><path d="M130.32,99.52L130.00,99.45L130.94,98.28L131.85,97.10L132.72,95.93L133.61,95.95L132.70,97.18L131.75,98.40L130.76,99.63L130.32,99.52"/><path d="M130.04,81.53L130.98,81.01L131.84,79.41L130.32,80.27"/><path d="M131.47,79.61L131.84,79.41"/><path d="M131.53,87.98L131.47,88.08L132.03,87.06L132.49,86.12L132.87,85.23L133.16,84.41L133.39,83.59"/><path d="M132.63,84.35L132.96,83.64"/><path d="M133.54,82.58L133.49,83.06L133.39,83.62"/><path d="M133.49,81.59L133.54,82.28"/><path d="M133.53,82.09L133.51,82.86"/><path d="M133.37,80.79L133.36,80.96L133.51,81.84"/><path d="M138.94,82.19L138.93,82.85L140.56,81.43L140.57,80.88L140.54,80.47L140.50,80.15L140.36,79.56L138.73,81.07L138.87,81.60L138.94,82.19"/><path d="M140.54,80.47L140.50,80.15"/></g></g><g id="Actor_144.0"><g style="stroke:#000000;stroke-width:0.088"><path d="M157.03,151.47L156.66,150.89L156.49,150.10L156.55,149.11L156.81,147.95L154.80,146.11"/><path d="M156.81,147.95L157.28,146.63L157.95,145.18L158.81,143.63L159.84,142.00L161.01,140.33L162.32,138.64L163.74,136.97L165.23,135.35L166.77,133.81L168.34,132.38L169.89,131.08L171.42,129.94L172.87,128.98L174.24,128.22L175.49,127.67L176.60,127.34L176.66,127.33"/><path d="M164.32,143.40L164.64,143.62L165.16,143.60L165.84,143.35L166.64,142.89L167.52,142.23L168.43,141.41L169.31,140.50L170.11,139.53L170.78,138.56L171.29,137.66L171.61,136.86L171.72,136.23L171.60,135.79"/><path d="M171.61,136.86L170.37,135.73"/><path d="M178.89,127.73L178.32,127.37L177.89,127.30"/></g><g style="stroke:#000000;stroke-width:0.353"><path d="M177.40,126.36L176.88,125.89L176.30,125.53L175.53,125.40L174.59,125.50L173.48,125.83L172.99,126.04L172.23,126.38L170.86,127.14L169.40,128.10L167.88,129.24L166.32,130.54L164.76,131.97L163.22,133.51L161.72,135.13L160.31,136.80L159.00,138.49L157.82,140.16L156.80,141.79L155.94,143.34L155.27,144.79L154.80,146.11L154.53,147.27L154.48,148.26L154.65,149.05L155.02,149.63L157.03,151.47L157.61,151.83L158.38,151.96L159.32,151.86L160.43,151.53L161.68,150.98L163.05,150.22L164.51,149.25L166.03,148.11L167.59,146.82L169.15,145.38L170.70,143.84L172.19,142.22L173.60,140.55L174.91,138.86L176.09,137.19L177.11,135.56L177.96,134.03L178.64,132.56L179.11,131.24L179.38,130.08L179.43,129.09L179.27,128.31L178.89,127.73L178.11,127.01"/><path d="M164.32,143.40L164.21,142.96L164.31,142.33L164.63,141.54L165.14,140.63L165.82,139.67L166.66,138.65L167.49,137.78L168.40,136.97L169.28,136.31L170.08,135.84L170.76,135.59L171.28,135.57L171.60,135.79"/><path d="M165.11,140.69L165.51,140.39L166.42,139.58L167.30,138.66L168.10,137.69L168.80,136.66"/></g></g><g id="Actor_141.0"><g style="stroke:#000000;stroke-width:0.088"><path d="M137.15,119.67L137.10,119.28L137.17,118.80L137.35,118.23L137.64,117.58L138.03,116.88L138.50,116.14L139.06,115.38L139.68,114.62L140.34,113.88L141.04,113.18L141.75,112.54L142.45,111.97L143.13,111.49L143.45,111.29L143.36,111.25L143.12,111.22L142.93,111.32"/><path d="M138.17,134.10L137.98,133.59L137.91,132.97L137.95,132.24L138.11,131.42L138.39,130.47L138.75,129.53L139.23,128.48L139.82,127.37L140.49,126.21L141.26,125.01L142.11,123.79L143.03,122.56L144.01,121.33L145.05,120.11L146.13,118.92L147.15,117.85L148.37,116.66L149.51,115.61L150.66,114.63L151.78,113.73L152.89,112.92L153.96,112.20L154.48,111.88L154.23,111.73L153.99,111.70L153.80,111.80"/><path d="M143.34,138.95L143.03,138.58L143.01,138.51L142.83,138.09L142.74,137.50L142.76,136.80L142.90,136.01L143.14,135.14L143.48,134.18L143.93,133.16L144.48,132.08L145.12,130.95L145.37,130.56L145.85,129.78L146.66,128.59L147.55,127.38L148.49,126.17L149.50,124.96L150.55,123.78L151.63,122.63L152.74,121.51L153.86,120.46L154.99,119.46L156.10,118.54L157.20,117.70L158.28,116.95L159.31,116.30L154.48,111.88L155.46,111.33L156.39,110.89L157.24,110.56L158.00,110.36L158.72,110.26L159.33,110.28L159.85,110.42"/><path d="M162.42,114.87L162.11,114.96L161.69,115.11L161.24,115.29L160.78,115.50L160.31,115.74L159.81,116.00L159.31,116.30L159.52,116.56L159.00,116.88L157.93,117.59L156.83,118.40L155.71,119.30L154.58,120.27L153.44,121.31L152.31,122.42L151.15,123.63L150.13,124.75L149.10,125.97L148.12,127.19L147.21,128.42L146.36,129.63L145.60,130.82L144.93,131.97L144.45,132.88L144.35,133.08L143.87,134.13L143.49,135.11L143.23,136.01L143.07,136.82L143.03,137.54L143.10,138.16L143.29,138.67L143.58,139.06L143.99,139.34L144.50,139.50"/><path d="M149.75,114.75L143.45,111.29L144.18,110.91L144.81,110.70L145.31,110.67L145.67,110.83"/><path d="M147.02,140.13L146.56,139.93L146.47,139.83L146.22,139.60L146.00,139.15L145.89,138.58L145.89,137.91L146.02,137.13L146.26,136.26L146.62,135.31L147.09,134.28L147.66,133.20L148.33,132.07L149.09,130.90L149.93,129.71L150.85,128.51L151.82,127.32L152.85,126.14L153.92,125.00L155.01,123.90L156.12,122.86L157.24,121.89L158.34,121.00L159.42,120.20L160.46,119.50L160.96,119.19L159.52,116.56L160.49,116.02L161.41,115.58L162.27,115.25L162.73,115.13"/><path d="M161.04,119.88L161.51,119.61L161.97,119.36L162.41,119.15L162.83,118.96L163.24,118.80L163.63,118.67L163.99,118.57L164.34,118.50L164.67,118.47L164.97,118.46L165.25,118.48L165.50,118.53L165.73,118.62L165.93,118.73L166.11,118.87L166.26,119.05L166.38,119.25L166.48,119.48L166.54,119.73L166.58,120.02L166.59,120.33L166.57,120.66L166.53,121.02L166.45,121.40L166.35,121.81L166.22,122.23L166.06,122.68L165.88,123.14L165.67,123.63L165.43,124.12L164.89,125.16L164.25,126.24L163.52,127.36L162.71,128.49L162.28,129.06L161.38,130.21L160.42,131.34L159.42,132.45L158.90,132.99L157.86,134.04L156.80,135.04L155.69,136.00L154.68,136.82L154.16,137.21L153.65,137.58L152.66,138.25L152.17,138.55L151.25,139.06L150.38,139.47L149.59,139.75L148.87,139.92L148.24,139.97L147.71,139.89L147.28,139.70L146.95,139.38L146.74,138.95L146.63,138.41L146.64,137.76L146.76,137.02L146.99,136.19L147.33,135.28L147.78,134.30L148.33,133.27L148.97,132.19L149.69,131.07L150.50,129.93L151.37,128.79L152.31,127.65L153.29,126.53L154.31,125.44L155.35,124.39L156.41,123.39L157.48,122.46L158.53,121.61L159.56,120.85L160.56,120.17L161.04,119.88L161.08,119.76L161.07,119.47L160.96,119.19L161.86,118.68L162.70,118.28L163.48,117.98L164.19,117.79L164.83,117.70L165.38,117.73L165.84,117.85L166.07,118.00L166.23,118.09L166.51,118.44L166.69,118.88"/><path d="M152.17,138.55L152.11,138.65"/><path d="M158.41,125.41L158.70,125.25L158.97,125.11L159.23,125.00L159.50,124.91L159.70,124.86L159.90,124.83L160.08,124.84L160.24,124.87L160.38,124.92L160.49,125.01L160.57,125.12L160.63,125.26L160.67,125.43L160.67,125.62L160.66,125.83L160.61,126.07L160.54,126.32L160.44,126.59L160.22,127.10L160.01,127.51L159.82,127.84L159.37,128.53L158.86,129.23L158.58,129.58L158.29,129.93L157.67,130.62L157.03,131.27L156.70,131.57L156.05,132.13L155.73,132.39L155.10,132.83L154.80,133.02L154.12,133.37L153.54,133.56L153.08,133.59L152.75,133.44L152.57,133.14L152.55,132.68L152.68,132.09L152.96,131.39L153.38,130.61L153.93,129.77L154.58,128.91L155.31,128.06L156.08,127.26L156.88,126.53L157.67,125.91L158.41,125.41L158.34,125.51"/><path d="M154.80,133.02L154.84,132.90L154.83,132.61L154.72,132.31L154.52,132.06L153.93,132.36L153.42,132.53L153.02,132.55L152.75,132.44"/><path d="M159.50,125.11L159.55,125.17L159.60,125.30L159.63,125.44L159.64,125.61L159.62,125.79L159.58,126.00L159.52,126.22L159.44,126.46L159.33,126.71L159.06,127.26L158.89,127.55L158.70,127.84L158.29,128.45L157.81,129.06L157.56,129.37L157.02,129.97L156.46,130.53L156.17,130.80L155.60,131.29L155.32,131.51L154.78,131.89L154.52,132.06L153.26,130.91"/><path d="M165.13,115.14L164.94,114.99L164.72,114.86L164.48,114.77L164.21,114.70L163.92,114.67L163.66,114.67"/><path d="M165.77,116.23L165.57,115.75L165.52,115.69L165.27,115.37L164.86,115.11L164.35,114.97L163.74,114.95L163.41,114.99"/></g><g style="stroke:#000000;stroke-width:0.353"><path d="M140.42,125.44L137.15,119.67L137.10,119.57L137.02,118.90L137.09,118.43L137.26,117.88L137.62,117.07L137.98,116.43L138.41,115.75L138.92,115.06L139.49,114.36L140.09,113.69L140.73,113.05L141.37,112.46L142.01,111.94L142.63,111.51L142.93,111.32L143.42,111.05L143.97,110.79L144.45,110.65L144.85,110.62L145.15,110.63L145.47,110.72L145.66,110.83L151.40,113.43"/><path d="M164.07,114.17L165.13,115.14L165.29,115.32L165.57,115.75L165.71,116.03L166.69,118.88L166.77,119.42L166.80,119.93L166.74,120.65L166.56,121.46L166.26,122.36L165.76,123.55L165.26,124.57L164.66,125.64L163.96,126.75L163.19,127.90L162.34,129.05L161.42,130.21L160.45,131.35L159.44,132.48L158.39,133.56L157.32,134.60L156.25,135.57L155.18,136.47L154.12,137.29L153.10,138.02L152.11,138.65L150.96,139.28L150.07,139.70L149.25,139.99L148.51,140.17L147.86,140.22L147.57,140.21L147.02,140.13L144.50,139.50L143.97,139.34L143.75,139.21L143.34,138.95L138.47,134.49L138.17,134.10L138.00,133.84L137.81,133.33L137.70,132.42L137.75,131.71L137.90,130.90L138.16,130.01L138.53,129.05L139.09,127.81L139.65,126.74L140.41,125.46L141.05,124.47L141.86,123.29L142.75,122.10L143.70,120.92L144.34,120.17L144.70,119.74L145.74,118.59L146.81,117.48L147.90,116.41L149.01,115.39L150.11,114.45L151.20,113.58L152.26,112.80L153.30,112.11L154.28,111.52L155.44,110.92L156.33,110.53L157.14,110.27L157.88,110.12L158.52,110.10L158.83,110.11L159.38,110.20L159.84,110.42L160.26,110.68L163.36,113.52"/><path d="M152.88,132.67L152.75,132.44"/><path d="M152.96,131.54L152.81,132.01L152.75,132.41L152.79,132.75"/><path d="M152.87,131.75L153.13,131.17L153.46,130.56L153.90,129.87L154.40,129.18L154.96,128.50L155.18,128.25L155.56,127.84L156.18,127.21L156.82,126.63L157.45,126.12L158.06,125.69L158.63,125.35"/><path d="M158.47,125.44L158.91,125.23L159.34,125.11L159.69,125.08"/><path d="M159.65,125.15L159.47,125.10"/><path d="M165.47,115.58L165.27,115.37L165.12,115.24L164.86,115.11L164.66,115.03L164.10,114.93"/></g></g><g id="PMI143.0"><g><path style="stroke:#ffffff;stroke-width:0.425" d="M157.48,55.14L152.54,55.14L134.55,72.94"/><path style="stroke:#05c3dd;stroke-width:0.125" d="M157.48,55.14L152.54,55.14L134.55,72.94"/></g><g><path style="stroke:#ffffff;stroke-width:0.150;fill:#05c3dd" d="M135.05,72.94L135.05,72.90L135.04,72.85L135.03,72.80L135.02,72.75L134.99,72.71L134.97,72.67L134.94,72.63L134.91,72.59L134.87,72.56L134.83,72.53L134.79,72.50L134.75,72.48L134.70,72.47L134.65,72.45L134.60,72.45L134.55,72.44L134.50,72.45L134.46,72.45L134.41,72.47L134.36,72.48L134.32,72.50L134.28,72.53L134.24,72.56L134.20,72.59L134.17,72.63L134.14,72.67L134.11,72.71L134.09,72.75L134.08,72.80L134.06,72.85L134.06,72.90L134.05,72.94L134.06,72.99L134.06,73.04L134.08,73.09L134.09,73.14L134.11,73.18L134.14,73.22L134.17,73.26L134.20,73.30L134.24,73.33L134.28,73.36L134.32,73.39L134.36,73.41L134.41,73.42L134.46,73.43L134.50,73.44L134.55,73.44L134.60,73.44L134.65,73.43L134.70,73.42L134.75,73.41L134.79,73.39L134.83,73.36L134.87,73.33L134.91,73.30L134.94,73.26L134.97,73.22L134.99,73.18L135.02,73.14L135.03,73.09L135.04,73.04L135.05,72.99z"/></g><g><path style="fill:#ffffff" d="M164.32,56.38L164.30,55.99L164.24,55.61L164.15,55.23L164.01,54.87L163.85,54.52L163.65,54.18L163.42,53.87L163.16,53.58L162.87,53.32L162.56,53.09L162.23,52.89L161.88,52.73L161.51,52.60L161.14,52.50L160.75,52.45L160.37,52.43L159.98,52.45L159.59,52.50L159.22,52.60L158.85,52.73L158.50,52.89L158.17,53.09L157.86,53.32L157.57,53.58L157.31,53.87L157.08,54.18L156.88,54.52L156.72,54.87L156.59,55.23L156.49,55.61L156.43,55.99L156.41,56.38L156.43,56.76L156.49,57.15L156.59,57.52L156.72,57.89L156.88,58.24L157.08,58.57L157.31,58.88L157.57,59.17L157.86,59.43L158.17,59.66L158.50,59.86L158.85,60.03L159.22,60.16L159.59,60.25L159.98,60.31L160.37,60.33L160.75,60.31L161.14,60.25L161.51,60.16L161.88,60.03L162.23,59.86L162.56,59.66L162.87,59.43L163.16,59.17L163.42,58.88L163.65,58.57L163.85,58.24L164.01,57.89L164.15,57.52L164.24,57.15L164.30,56.76z"/><path style="stroke:#ffffff;stroke-width:0.275" d="M164.32,56.38L164.30,55.99L164.24,55.61L164.15,55.23L164.01,54.87L163.85,54.52L163.65,54.18L163.42,53.87L163.16,53.58L162.87,53.32L162.56,53.09L162.23,52.89L161.88,52.73L161.51,52.60L161.14,52.50L160.75,52.45L160.37,52.43L159.98,52.45L159.59,52.50L159.22,52.60L158.85,52.73L158.50,52.89L158.17,53.09L157.86,53.32L157.57,53.58L157.31,53.87L157.08,54.18L156.88,54.52L156.72,54.87L156.59,55.23L156.49,55.61L156.43,55.99L156.41,56.38L156.43,56.76L156.49,57.15L156.59,57.52L156.72,57.89L156.88,58.24L157.08,58.57L157.31,58.88L157.57,59.17L157.86,59.43L158.17,59.66L158.50,59.86L158.85,60.03L159.22,60.16L159.59,60.25L159.98,60.31L160.37,60.33L160.75,60.31L161.14,60.25L161.51,60.16L161.88,60.03L162.23,59.86L162.56,59.66L162.87,59.43L163.16,59.17L163.42,58.88L163.65,58.57L163.85,58.24L164.01,57.89L164.15,57.52L164.24,57.15L164.30,56.76z"/><path style="stroke:#05c3dd;stroke-width:0.125;stroke-opacity:0.98" d="M164.32,56.38L164.30,55.99L164.24,55.61L164.15,55.23L164.01,54.87L163.85,54.52L163.65,54.18L163.42,53.87L163.16,53.58L162.87,53.32L162.56,53.09L162.23,52.89L161.88,52.73L161.51,52.60L161.14,52.50L160.75,52.45L160.37,52.43L159.98,52.45L159.59,52.50L159.22,52.60L158.85,52.73L158.50,52.89L158.17,53.09L157.86,53.32L157.57,53.58L157.31,53.87L157.08,54.18L156.88,54.52L156.72,54.87L156.59,55.23L156.49,55.61L156.43,55.99L156.41,56.38L156.43,56.76L156.49,57.15L156.59,57.52L156.72,57.89L156.88,58.24L157.08,58.57L157.31,58.88L157.57,59.17L157.86,59.43L158.17,59.66L158.50,59.86L158.85,60.03L159.22,60.16L159.59,60.25L159.98,60.31L160.37,60.33L160.75,60.31L161.14,60.25L161.51,60.16L161.88,60.03L162.23,59.86L162.56,59.66L162.87,59.43L163.16,59.17L163.42,58.88L163.65,58.57L163.85,58.24L164.01,57.89L164.15,57.52L164.24,57.15L164.30,56.76z"/><text xml:space="preserve" fill="#05c3dd" stroke-width="0" x="157.48" y="58.11" font-size="3.39" opacity="1.00" font-family="Exo 2">143</text></g></g><g id="PMI142.0"><g><path style="stroke:#ffffff;stroke-width:0.425" d="M173.97,70.85L169.03,70.85L144.96,97.13"/><path style="stroke:#05c3dd;stroke-width:0.125" d="M173.97,70.85L169.03,70.85L144.96,97.13"/></g><g><path style="stroke:#ffffff;stroke-width:0.150;fill:#05c3dd" d="M145.46,97.13L145.46,97.08L145.45,97.03L145.44,96.98L145.42,96.93L145.40,96.89L145.38,96.85L145.35,96.81L145.32,96.77L145.28,96.74L145.24,96.71L145.20,96.68L145.15,96.66L145.11,96.65L145.06,96.64L145.01,96.63L144.96,96.63L144.91,96.63L144.87,96.64L144.82,96.65L144.77,96.66L144.73,96.68L144.69,96.71L144.65,96.74L144.61,96.77L144.58,96.81L144.55,96.85L144.52,96.89L144.50,96.93L144.48,96.98L144.47,97.03L144.47,97.08L144.46,97.13L144.47,97.17L144.47,97.22L144.48,97.27L144.50,97.32L144.52,97.36L144.55,97.40L144.58,97.44L144.61,97.48L144.65,97.51L144.69,97.54L144.73,97.57L144.77,97.59L144.82,97.60L144.87,97.62L144.91,97.62L144.96,97.63L145.01,97.62L145.06,97.62L145.11,97.60L145.15,97.59L145.20,97.57L145.24,97.54L145.28,97.51L145.32,97.48L145.35,97.44L145.38,97.40L145.40,97.36L145.42,97.32L145.44,97.27L145.45,97.22L145.46,97.17z"/></g><g><path style="fill:#ffffff" d="M180.82,72.08L180.80,71.69L180.74,71.31L180.65,70.93L180.52,70.57L180.35,70.22L180.15,69.89L179.92,69.58L179.66,69.29L179.37,69.03L179.06,68.80L178.73,68.60L178.38,68.43L178.02,68.30L177.64,68.21L177.26,68.15L176.87,68.13L176.48,68.15L176.10,68.21L175.72,68.30L175.36,68.43L175.01,68.60L174.67,68.80L174.36,69.03L174.08,69.29L173.81,69.58L173.58,69.89L173.38,70.22L173.22,70.57L173.09,70.93L172.99,71.31L172.94,71.69L172.92,72.08L172.94,72.47L172.99,72.85L173.09,73.23L173.22,73.59L173.38,73.94L173.58,74.28L173.81,74.59L174.08,74.87L174.36,75.14L174.67,75.37L175.01,75.57L175.36,75.73L175.72,75.86L176.10,75.96L176.48,76.01L176.87,76.03L177.26,76.01L177.64,75.96L178.02,75.86L178.38,75.73L178.73,75.57L179.06,75.37L179.37,75.14L179.66,74.87L179.92,74.59L180.15,74.28L180.35,73.94L180.52,73.59L180.65,73.23L180.74,72.85L180.80,72.47z"/><path style="stroke:#ffffff;stroke-width:0.275" d="M180.82,72.08L180.80,71.69L180.74,71.31L180.65,70.93L180.52,70.57L180.35,70.22L180.15,69.89L179.92,69.58L179.66,69.29L179.37,69.03L179.06,68.80L178.73,68.60L178.38,68.43L178.02,68.30L177.64,68.21L177.26,68.15L176.87,68.13L176.48,68.15L176.10,68.21L175.72,68.30L175.36,68.43L175.01,68.60L174.67,68.80L174.36,69.03L174.08,69.29L173.81,69.58L173.58,69.89L173.38,70.22L173.22,70.57L173.09,70.93L172.99,71.31L172.94,71.69L172.92,72.08L172.94,72.47L172.99,72.85L173.09,73.23L173.22,73.59L173.38,73.94L173.58,74.28L173.81,74.59L174.08,74.87L174.36,75.14L174.67,75.37L175.01,75.57L175.36,75.73L175.72,75.86L176.10,75.96L176.48,76.01L176.87,76.03L177.26,76.01L177.64,75.96L178.02,75.86L178.38,75.73L178.73,75.57L179.06,75.37L179.37,75.14L179.66,74.87L179.92,74.59L180.15,74.28L180.35,73.94L180.52,73.59L180.65,73.23L180.74,72.85L180.80,72.47z"/><path style="stroke:#05c3dd;stroke-width:0.125;stroke-opacity:0.98" d="M180.82,72.08L180.80,71.69L180.74,71.31L180.65,70.93L180.52,70.57L180.35,70.22L180.15,69.89L179.92,69.58L179.66,69.29L179.37,69.03L179.06,68.80L178.73,68.60L178.38,68.43L178.02,68.30L177.64,68.21L177.26,68.15L176.87,68.13L176.48,68.15L176.10,68.21L175.72,68.30L175.36,68.43L175.01,68.60L174.67,68.80L174.36,69.03L174.08,69.29L173.81,69.58L173.58,69.89L173.38,70.22L173.22,70.57L173.09,70.93L172.99,71.31L172.94,71.69L172.92,72.08L172.94,72.47L172.99,72.85L173.09,73.23L173.22,73.59L173.38,73.94L173.58,74.28L173.81,74.59L174.08,74.87L174.36,75.14L174.67,75.37L175.01,75.57L175.36,75.73L175.72,75.86L176.10,75.96L176.48,76.01L176.87,76.03L177.26,76.01L177.64,75.96L178.02,75.86L178.38,75.73L178.73,75.57L179.06,75.37L179.37,75.14L179.66,74.87L179.92,74.59L180.15,74.28L180.35,73.94L180.52,73.59L180.65,73.23L180.74,72.85L180.80,72.47z"/><text xml:space="preserve" fill="#05c3dd" stroke-width="0" x="173.97" y="73.81" font-size="3.39" opacity="1.00" font-family="Exo 2">142</text></g></g><g id="PMI141.0"><g><path style="stroke:#ffffff;stroke-width:0.425" d="M190.72,86.29L185.78,86.29L162.70,115.10"/><path style="stroke:#05c3dd;stroke-width:0.125" d="M190.72,86.29L185.78,86.29L162.70,115.10"/></g><g><path style="stroke:#ffffff;stroke-width:0.150;fill:#05c3dd" d="M163.20,115.10L163.20,115.06L163.19,115.01L163.18,114.96L163.16,114.91L163.14,114.87L163.12,114.83L163.09,114.79L163.06,114.75L163.02,114.72L162.98,114.69L162.94,114.66L162.89,114.64L162.85,114.63L162.80,114.61L162.75,114.61L162.70,114.60L162.65,114.61L162.61,114.61L162.56,114.63L162.51,114.64L162.47,114.66L162.43,114.69L162.39,114.72L162.35,114.75L162.32,114.79L162.29,114.83L162.26,114.87L162.24,114.91L162.22,114.96L162.21,115.01L162.21,115.06L162.20,115.10L162.21,115.15L162.21,115.20L162.22,115.25L162.24,115.30L162.26,115.34L162.29,115.38L162.32,115.42L162.35,115.46L162.39,115.49L162.43,115.52L162.47,115.55L162.51,115.57L162.56,115.58L162.61,115.59L162.65,115.60L162.70,115.60L162.75,115.60L162.80,115.59L162.85,115.58L162.89,115.57L162.94,115.55L162.98,115.52L163.02,115.49L163.06,115.46L163.09,115.42L163.12,115.38L163.14,115.34L163.16,115.30L163.18,115.25L163.19,115.20L163.20,115.15z"/></g><g><path style="fill:#ffffff" d="M197.26,87.52L197.24,87.14L197.19,86.75L197.09,86.38L196.96,86.01L196.80,85.66L196.60,85.33L196.37,85.02L196.11,84.73L195.82,84.47L195.51,84.24L195.17,84.04L194.82,83.87L194.46,83.74L194.08,83.65L193.70,83.59L193.31,83.57L192.93,83.59L192.54,83.65L192.17,83.74L191.80,83.87L191.45,84.04L191.12,84.24L190.81,84.47L190.52,84.73L190.26,85.02L190.03,85.33L189.83,85.66L189.66,86.01L189.53,86.38L189.44,86.75L189.38,87.14L189.36,87.52L189.38,87.91L189.44,88.29L189.53,88.67L189.66,89.04L189.83,89.39L190.03,89.72L190.26,90.03L190.52,90.32L190.81,90.58L191.12,90.81L191.45,91.01L191.80,91.17L192.17,91.30L192.54,91.40L192.93,91.46L193.31,91.47L193.70,91.46L194.08,91.40L194.46,91.30L194.82,91.17L195.17,91.01L195.51,90.81L195.82,90.58L196.11,90.32L196.37,90.03L196.60,89.72L196.80,89.39L196.96,89.04L197.09,88.67L197.19,88.29L197.24,87.91z"/><path style="stroke:#ffffff;stroke-width:0.275" d="M197.26,87.52L197.24,87.14L197.19,86.75L197.09,86.38L196.96,86.01L196.80,85.66L196.60,85.33L196.37,85.02L196.11,84.73L195.82,84.47L195.51,84.24L195.17,84.04L194.82,83.87L194.46,83.74L194.08,83.65L193.70,83.59L193.31,83.57L192.93,83.59L192.54,83.65L192.17,83.74L191.80,83.87L191.45,84.04L191.12,84.24L190.81,84.47L190.52,84.73L190.26,85.02L190.03,85.33L189.83,85.66L189.66,86.01L189.53,86.38L189.44,86.75L189.38,87.14L189.36,87.52L189.38,87.91L189.44,88.29L189.53,88.67L189.66,89.04L189.83,89.39L190.03,89.72L190.26,90.03L190.52,90.32L190.81,90.58L191.12,90.81L191.45,91.01L191.80,91.17L192.17,91.30L192.54,91.40L192.93,91.46L193.31,91.47L193.70,91.46L194.08,91.40L194.46,91.30L194.82,91.17L195.17,91.01L195.51,90.81L195.82,90.58L196.11,90.32L196.37,90.03L196.60,89.72L196.80,89.39L196.96,89.04L197.09,88.67L197.19,88.29L197.24,87.91z"/><path style="stroke:#05c3dd;stroke-width:0.125;stroke-opacity:0.98" d="M197.26,87.52L197.24,87.14L197.19,86.75L197.09,86.38L196.96,86.01L196.80,85.66L196.60,85.33L196.37,85.02L196.11,84.73L195.82,84.47L195.51,84.24L195.17,84.04L194.82,83.87L194.46,83.74L194.08,83.65L193.70,83.59L193.31,83.57L192.93,83.59L192.54,83.65L192.17,83.74L191.80,83.87L191.45,84.04L191.12,84.24L190.81,84.47L190.52,84.73L190.26,85.02L190.03,85.33L189.83,85.66L189.66,86.01L189.53,86.38L189.44,86.75L189.38,87.14L189.36,87.52L189.38,87.91L189.44,88.29L189.53,88.67L189.66,89.04L189.83,89.39L190.03,89.72L190.26,90.03L190.52,90.32L190.81,90.58L191.12,90.81L191.45,91.01L191.80,91.17L192.17,91.30L192.54,91.40L192.93,91.46L193.31,91.47L193.70,91.46L194.08,91.40L194.46,91.30L194.82,91.17L195.17,91.01L195.51,90.81L195.82,90.58L196.11,90.32L196.37,90.03L196.60,89.72L196.80,89.39L196.96,89.04L197.09,88.67L197.19,88.29L197.24,87.91z"/><text xml:space="preserve" fill="#05c3dd" stroke-width="0" x="190.72" y="89.25" font-size="3.39" opacity="1.00" font-family="Exo 2">141</text></g></g><g id="PMI144.0"><g><path style="stroke:#ffffff;stroke-width:0.425" d="M203.80,99.11L198.87,99.11L177.02,127.65"/><path style="stroke:#05c3dd;stroke-width:0.125" d="M203.80,99.11L198.87,99.11L177.02,127.65"/></g><g><path style="stroke:#ffffff;stroke-width:0.150;fill:#05c3dd" d="M177.52,127.65L177.51,127.60L177.51,127.55L177.50,127.51L177.48,127.46L177.46,127.42L177.43,127.37L177.40,127.33L177.37,127.30L177.33,127.27L177.30,127.24L177.25,127.21L177.21,127.19L177.16,127.17L177.11,127.16L177.07,127.15L177.02,127.15L176.97,127.15L176.92,127.16L176.87,127.17L176.83,127.19L176.78,127.21L176.74,127.24L176.70,127.27L176.66,127.30L176.63,127.33L176.60,127.37L176.58,127.42L176.56,127.46L176.54,127.51L176.53,127.55L176.52,127.60L176.52,127.65L176.52,127.70L176.53,127.75L176.54,127.80L176.56,127.84L176.58,127.89L176.60,127.93L176.63,127.97L176.66,128.01L176.70,128.04L176.74,128.07L176.78,128.09L176.83,128.11L176.87,128.13L176.92,128.14L176.97,128.15L177.02,128.15L177.07,128.15L177.11,128.14L177.16,128.13L177.21,128.11L177.25,128.09L177.30,128.07L177.33,128.04L177.37,128.01L177.40,127.97L177.43,127.93L177.46,127.89L177.48,127.84L177.50,127.80L177.51,127.75L177.51,127.70z"/></g><g><path style="fill:#ffffff" d="M210.79,100.35L210.77,99.96L210.72,99.57L210.62,99.19L210.49,98.82L210.32,98.47L210.12,98.13L209.89,97.82L209.63,97.53L209.34,97.27L209.02,97.03L208.69,96.83L208.33,96.66L207.96,96.53L207.58,96.44L207.20,96.38L206.81,96.36L206.41,96.38L206.03,96.44L205.65,96.53L205.28,96.66L204.92,96.83L204.59,97.03L204.27,97.27L203.98,97.53L203.72,97.82L203.49,98.13L203.29,98.47L203.12,98.82L202.99,99.19L202.89,99.57L202.84,99.96L202.82,100.35L202.84,100.74L202.89,101.13L202.99,101.51L203.12,101.88L203.29,102.23L203.49,102.57L203.72,102.88L203.98,103.17L204.27,103.43L204.59,103.67L204.92,103.87L205.28,104.03L205.65,104.17L206.03,104.26L206.41,104.32L206.81,104.34L207.20,104.32L207.58,104.26L207.96,104.17L208.33,104.03L208.69,103.87L209.02,103.67L209.34,103.43L209.63,103.17L209.89,102.88L210.12,102.57L210.32,102.23L210.49,101.88L210.62,101.51L210.72,101.13L210.77,100.74z"/><path style="stroke:#ffffff;stroke-width:0.275" d="M210.79,100.35L210.77,99.96L210.72,99.57L210.62,99.19L210.49,98.82L210.32,98.47L210.12,98.13L209.89,97.82L209.63,97.53L209.34,97.27L209.02,97.03L208.69,96.83L208.33,96.66L207.96,96.53L207.58,96.44L207.20,96.38L206.81,96.36L206.41,96.38L206.03,96.44L205.65,96.53L205.28,96.66L204.92,96.83L204.59,97.03L204.27,97.27L203.98,97.53L203.72,97.82L203.49,98.13L203.29,98.47L203.12,98.82L202.99,99.19L202.89,99.57L202.84,99.96L202.82,100.35L202.84,100.74L202.89,101.13L202.99,101.51L203.12,101.88L203.29,102.23L203.49,102.57L203.72,102.88L203.98,103.17L204.27,103.43L204.59,103.67L204.92,103.87L205.28,104.03L205.65,104.17L206.03,104.26L206.41,104.32L206.81,104.34L207.20,104.32L207.58,104.26L207.96,104.17L208.33,104.03L208.69,103.87L209.02,103.67L209.34,103.43L209.63,103.17L209.89,102.88L210.12,102.57L210.32,102.23L210.49,101.88L210.62,101.51L210.72,101.13L210.77,100.74z"/><path style="stroke:#05c3dd;stroke-width:0.125;stroke-opacity:0.98" d="M210.79,100.35L210.77,99.96L210.72,99.57L210.62,99.19L210.49,98.82L210.32,98.47L210.12,98.13L209.89,97.82L209.63,97.53L209.34,97.27L209.02,97.03L208.69,96.83L208.33,96.66L207.96,96.53L207.58,96.44L207.20,96.38L206.81,96.36L206.41,96.38L206.03,96.44L205.65,96.53L205.28,96.66L204.92,96.83L204.59,97.03L204.27,97.27L203.98,97.53L203.72,97.82L203.49,98.13L203.29,98.47L203.12,98.82L202.99,99.19L202.89,99.57L202.84,99.96L202.82,100.35L202.84,100.74L202.89,101.13L202.99,101.51L203.12,101.88L203.29,102.23L203.49,102.57L203.72,102.88L203.98,103.17L204.27,103.43L204.59,103.67L204.92,103.87L205.28,104.03L205.65,104.17L206.03,104.26L206.41,104.32L206.81,104.34L207.20,104.32L207.58,104.26L207.96,104.17L208.33,104.03L208.69,103.87L209.02,103.67L209.34,103.43L209.63,103.17L209.89,102.88L210.12,102.57L210.32,102.23L210.49,101.88L210.62,101.51L210.72,101.13L210.77,100.74z"/><text xml:space="preserve" fill="#05c3dd" stroke-width="0" x="203.80" y="102.08" font-size="3.39" opacity="1.00" font-family="Exo 2">144</text></g></g><g id="PMI145.0"><g><path style="stroke:#ffffff;stroke-width:0.425" d="M223.17,117.44L218.23,117.44L192.39,150.84"/><path style="stroke:#05c3dd;stroke-width:0.125" d="M223.17,117.44L218.23,117.44L192.39,150.84"/></g><g><path style="stroke:#ffffff;stroke-width:0.150;fill:#05c3dd" d="M192.89,150.84L192.89,150.79L192.88,150.74L192.87,150.69L192.85,150.65L192.83,150.60L192.80,150.56L192.77,150.52L192.74,150.48L192.70,150.45L192.67,150.42L192.62,150.40L192.58,150.38L192.53,150.36L192.49,150.35L192.44,150.34L192.39,150.34L192.34,150.34L192.29,150.35L192.24,150.36L192.20,150.38L192.15,150.40L192.11,150.42L192.07,150.45L192.03,150.48L192.00,150.52L191.97,150.56L191.95,150.60L191.93,150.65L191.91,150.69L191.90,150.74L191.89,150.79L191.89,150.84L191.89,150.89L191.90,150.94L191.91,150.98L191.93,151.03L191.95,151.07L191.97,151.12L192.00,151.15L192.03,151.19L192.07,151.22L192.11,151.25L192.15,151.28L192.20,151.30L192.24,151.32L192.29,151.33L192.34,151.34L192.39,151.34L192.44,151.34L192.49,151.33L192.53,151.32L192.58,151.30L192.62,151.28L192.67,151.25L192.70,151.22L192.74,151.19L192.77,151.15L192.80,151.12L192.83,151.07L192.85,151.03L192.87,150.98L192.88,150.94L192.89,150.89z"/></g><g><path style="fill:#ffffff" d="M229.98,118.67L229.96,118.28L229.90,117.90L229.81,117.52L229.68,117.16L229.51,116.81L229.31,116.48L229.08,116.16L228.82,115.88L228.53,115.62L228.22,115.39L227.89,115.19L227.54,115.02L227.17,114.89L226.80,114.80L226.41,114.74L226.03,114.72L225.64,114.74L225.25,114.80L224.88,114.89L224.51,115.02L224.16,115.19L223.83,115.39L223.52,115.62L223.23,115.88L222.97,116.16L222.74,116.48L222.54,116.81L222.38,117.16L222.25,117.52L222.15,117.90L222.09,118.28L222.08,118.67L222.09,119.06L222.15,119.44L222.25,119.82L222.38,120.18L222.54,120.53L222.74,120.87L222.97,121.18L223.23,121.46L223.52,121.72L223.83,121.96L224.16,122.15L224.51,122.32L224.88,122.45L225.25,122.55L225.64,122.60L226.03,122.62L226.41,122.60L226.80,122.55L227.17,122.45L227.54,122.32L227.89,122.15L228.22,121.96L228.53,121.72L228.82,121.46L229.08,121.18L229.31,120.87L229.51,120.53L229.68,120.18L229.81,119.82L229.90,119.44L229.96,119.06z"/><path style="stroke:#ffffff;stroke-width:0.275" d="M229.98,118.67L229.96,118.28L229.90,117.90L229.81,117.52L229.68,117.16L229.51,116.81L229.31,116.48L229.08,116.16L228.82,115.88L228.53,115.62L228.22,115.39L227.89,115.19L227.54,115.02L227.17,114.89L226.80,114.80L226.41,114.74L226.03,114.72L225.64,114.74L225.25,114.80L224.88,114.89L224.51,115.02L224.16,115.19L223.83,115.39L223.52,115.62L223.23,115.88L222.97,116.16L222.74,116.48L222.54,116.81L222.38,117.16L222.25,117.52L222.15,117.90L222.09,118.28L222.08,118.67L222.09,119.06L222.15,119.44L222.25,119.82L222.38,120.18L222.54,120.53L222.74,120.87L222.97,121.18L223.23,121.46L223.52,121.72L223.83,121.96L224.16,122.15L224.51,122.32L224.88,122.45L225.25,122.55L225.64,122.60L226.03,122.62L226.41,122.60L226.80,122.55L227.17,122.45L227.54,122.32L227.89,122.15L228.22,121.96L228.53,121.72L228.82,121.46L229.08,121.18L229.31,120.87L229.51,120.53L229.68,120.18L229.81,119.82L229.90,119.44L229.96,119.06z"/><path style="stroke:#05c3dd;stroke-width:0.125;stroke-opacity:0.98" d="M229.98,118.67L229.96,118.28L229.90,117.90L229.81,117.52L229.68,117.16L229.51,116.81L229.31,116.48L229.08,116.16L228.82,115.88L228.53,115.62L228.22,115.39L227.89,115.19L227.54,115.02L227.17,114.89L226.80,114.80L226.41,114.74L226.03,114.72L225.64,114.74L225.25,114.80L224.88,114.89L224.51,115.02L224.16,115.19L223.83,115.39L223.52,115.62L223.23,115.88L222.97,116.16L222.74,116.48L222.54,116.81L222.38,117.16L222.25,117.52L222.15,117.90L222.09,118.28L222.08,118.67L222.09,119.06L222.15,119.44L222.25,119.82L222.38,120.18L222.54,120.53L222.74,120.87L222.97,121.18L223.23,121.46L223.52,121.72L223.83,121.96L224.16,122.15L224.51,122.32L224.88,122.45L225.25,122.55L225.64,122.60L226.03,122.62L226.41,122.60L226.80,122.55L227.17,122.45L227.54,122.32L227.89,122.15L228.22,121.96L228.53,121.72L228.82,121.46L229.08,121.18L229.31,120.87L229.51,120.53L229.68,120.18L229.81,119.82L229.90,119.44L229.96,119.06z"/><text xml:space="preserve" fill="#05c3dd" stroke-width="0" x="223.17" y="120.40" font-size="3.39" opacity="1.00" font-family="Exo 2">145</text></g></g><g id="PMI140.0"><g><path style="stroke:#ffffff;stroke-width:0.425" d="M248.82,141.78L243.89,141.78L218.11,177.15"/><path style="stroke:#05c3dd;stroke-width:0.125" d="M248.82,141.78L243.89,141.78L218.11,177.15"/></g><g><path style="stroke:#ffffff;stroke-width:0.150;fill:#05c3dd" d="M218.61,177.15L218.61,177.10L218.60,177.05L218.59,177.00L218.58,176.96L218.56,176.91L218.53,176.87L218.50,176.83L218.47,176.79L218.43,176.76L218.39,176.73L218.35,176.71L218.31,176.69L218.26,176.67L218.21,176.66L218.16,176.65L218.11,176.65L218.07,176.65L218.02,176.66L217.97,176.67L217.92,176.69L217.88,176.71L217.84,176.73L217.80,176.76L217.76,176.79L217.73,176.83L217.70,176.87L217.67,176.91L217.65,176.96L217.64,177.00L217.62,177.05L217.62,177.10L217.61,177.15L217.62,177.20L217.62,177.24L217.64,177.29L217.65,177.34L217.67,177.38L217.70,177.42L217.73,177.46L217.76,177.50L217.80,177.53L217.84,177.56L217.88,177.59L217.92,177.61L217.97,177.63L218.02,177.64L218.07,177.64L218.11,177.65L218.16,177.64L218.21,177.64L218.26,177.63L218.31,177.61L218.35,177.59L218.39,177.56L218.43,177.53L218.47,177.50L218.50,177.46L218.53,177.42L218.56,177.38L218.58,177.34L218.59,177.29L218.60,177.24L218.61,177.20z"/></g><g><path style="fill:#ffffff" d="M255.76,143.01L255.74,142.62L255.69,142.24L255.59,141.86L255.46,141.50L255.30,141.14L255.10,140.81L254.86,140.50L254.60,140.21L254.31,139.95L254.00,139.72L253.67,139.52L253.32,139.35L252.95,139.22L252.57,139.12L252.19,139.07L251.80,139.05L251.41,139.07L251.03,139.12L250.65,139.22L250.28,139.35L249.93,139.52L249.60,139.72L249.28,139.95L249.00,140.21L248.74,140.50L248.50,140.81L248.30,141.14L248.14,141.50L248.01,141.86L247.91,142.24L247.85,142.62L247.84,143.01L247.85,143.40L247.91,143.79L248.01,144.16L248.14,144.53L248.30,144.88L248.50,145.21L248.74,145.53L249.00,145.82L249.28,146.08L249.60,146.31L249.93,146.51L250.28,146.67L250.65,146.81L251.03,146.90L251.41,146.96L251.80,146.98L252.19,146.96L252.57,146.90L252.95,146.81L253.32,146.67L253.67,146.51L254.00,146.31L254.31,146.08L254.60,145.82L254.86,145.53L255.10,145.21L255.30,144.88L255.46,144.53L255.59,144.16L255.69,143.79L255.74,143.40z"/><path style="stroke:#ffffff;stroke-width:0.275" d="M255.76,143.01L255.74,142.62L255.69,142.24L255.59,141.86L255.46,141.50L255.30,141.14L255.10,140.81L254.86,140.50L254.60,140.21L254.31,139.95L254.00,139.72L253.67,139.52L253.32,139.35L252.95,139.22L252.57,139.12L252.19,139.07L251.80,139.05L251.41,139.07L251.03,139.12L250.65,139.22L250.28,139.35L249.93,139.52L249.60,139.72L249.28,139.95L249.00,140.21L248.74,140.50L248.50,140.81L248.30,141.14L248.14,141.50L248.01,141.86L247.91,142.24L247.85,142.62L247.84,143.01L247.85,143.40L247.91,143.79L248.01,144.16L248.14,144.53L248.30,144.88L248.50,145.21L248.74,145.53L249.00,145.82L249.28,146.08L249.60,146.31L249.93,146.51L250.28,146.67L250.65,146.81L251.03,146.90L251.41,146.96L251.80,146.98L252.19,146.96L252.57,146.90L252.95,146.81L253.32,146.67L253.67,146.51L254.00,146.31L254.31,146.08L254.60,145.82L254.86,145.53L255.10,145.21L255.30,144.88L255.46,144.53L255.59,144.16L255.69,143.79L255.74,143.40z"/><path style="stroke:#05c3dd;stroke-width:0.125;stroke-opacity:0.98" d="M255.76,143.01L255.74,142.62L255.69,142.24L255.59,141.86L255.46,141.50L255.30,141.14L255.10,140.81L254.86,140.50L254.60,140.21L254.31,139.95L254.00,139.72L253.67,139.52L253.32,139.35L252.95,139.22L252.57,139.12L252.19,139.07L251.80,139.05L251.41,139.07L251.03,139.12L250.65,139.22L250.28,139.35L249.93,139.52L249.60,139.72L249.28,139.95L249.00,140.21L248.74,140.50L248.50,140.81L248.30,141.14L248.14,141.50L248.01,141.86L247.91,142.24L247.85,142.62L247.84,143.01L247.85,143.40L247.91,143.79L248.01,144.16L248.14,144.53L248.30,144.88L248.50,145.21L248.74,145.53L249.00,145.82L249.28,146.08L249.60,146.31L249.93,146.51L250.28,146.67L250.65,146.81L251.03,146.90L251.41,146.96L251.80,146.98L252.19,146.96L252.57,146.90L252.95,146.81L253.32,146.67L253.67,146.51L254.00,146.31L254.31,146.08L254.60,145.82L254.86,145.53L255.10,145.21L255.30,144.88L255.46,144.53L255.59,144.16L255.69,143.79L255.74,143.40z"/><text xml:space="preserve" fill="#05c3dd" stroke-width="0" x="248.82" y="144.74" font-size="3.39" opacity="1.00" font-family="Exo 2">140</text></g></g><g/><g><g/><g><image x="7.000000" y="7.000000" height="37.024391" width="32.999996" xlink:href="99996610-FR-00_files/ab2138691e552870_image_0.jpg"/></g></g><g><g/><g><image x="46.999996" y="7.000000" height="37.024391" width="32.999996" xlink:href="99996610-FR-00_files/ab2138691e552870_image_1.jpg"/></g></g><g><g/><g><image x="87.000000" y="7.000000" height="37.024391" width="32.999996" xlink:href="99996610-FR-00_files/ab2138691e552870_image_2.jpg"/></g></g><g><g/><g><image x="40.499996" y="18.999998" height="11.404249" width="6.000000" xlink:href="99996610-FR-00_files/ab2138691e552870_image_3.jpg"/></g></g><g><g/><g><image x="80.499992" y="18.999998" height="11.404249" width="6.000000" xlink:href="99996610-FR-00_files/ab2138691e552870_image_4.jpg"/></g></g><g><g/><g><image x="120.499985" y="18.999998" height="11.404249" width="6.000000" xlink:href="99996610-FR-00_files/ab2138691e552870_image_5.jpg"/></g></g><g><g/><g><image x="126.999992" y="7.000000" height="37.024391" width="32.999996" xlink:href="99996610-FR-00_files/ab2138691e552870_image_6.jpg"/></g></g><g id="paperID" visibility="hidden" opacity="0.00" transform="scale(0.000100)"><path style="stroke:#000000;stroke-width:0.500;fill:#e6e6e6;fill-rule:evenodd" d="M-2000.00,-2000.00L2316.00,-2000.00L2316.00,2223.00L-2000.00,2223.00zM0.00,0.00L316.00,0.00L316.00,223.00L0.00,223.00z"/><path style="fill:#000000;fill-opacity:0.118" d="M3.00,223.00L316.00,223.00L316.00,3.00L319.00,3.00L319.00,226.00L3.00,226.00z"/></g><g id="hotspot.0" onmouseover="ShowHotSpot(evt,'0')" onmouseout="HideHotSpot(evt,'0')" onmousemove="ShowToolTip(evt,'0',&quot;113&quot;)" opacity="0"><a xlink:href="113.SVG"><path style="fill:#6fffff;fill-rule:evenodd" d="M159.84,43.89L127.02,43.89L127.02,7.14L159.84,7.14z"/></a></g><g id="hotspot.1" onmouseover="ShowHotSpot(evt,'1')" onmouseout="HideHotSpot(evt,'1')" onmousemove="ShowToolTip(evt,'1',&quot;99996610-FR-00&quot;)" opacity="0"><a xlink:href="99996610-FR-00.SVG"><path style="fill:#6fffff;fill-rule:evenodd" d="M39.97,43.89L7.14,43.89L7.14,7.14L39.97,7.14z"/></a></g><g id="hotspot.2" onmouseover="ShowHotSpot(evt,'2')" onmouseout="HideHotSpot(evt,'2')" onmousemove="ShowToolTip(evt,'2',&quot;07&quot;)" opacity="0"><a xlink:href="07.svg"><path style="fill:#6fffff;fill-rule:evenodd" d="M119.80,43.89L86.97,43.89L86.97,7.14L119.80,7.14z"/></a></g><g id="hotspot.3" onmouseover="ShowHotSpot(evt,'3')" onmouseout="HideHotSpot(evt,'3')" onmousemove="ShowToolTip(evt,'3',&quot;00&quot;)" opacity="0"><a xlink:href="00.SVG"><path style="fill:#6fffff;fill-rule:evenodd" d="M79.75,43.89L46.93,43.89L46.93,7.14L79.75,7.14z"/></a></g><g id="hotspot.4" onmouseover="ShowHotSpot(evt,'4')" onmouseout="HideHotSpot(evt,'4')" onmousemove="ShowToolTip(evt,'4',&quot;140&quot;)" opacity="0"><path style="fill:#ffed00;fill-rule:evenodd" d="M247.87,143.70L247.70,143.60L247.70,142.49L247.87,142.39zM248.12,143.72L247.87,143.70L247.87,142.39L248.13,142.38zM252.84,139.24L250.55,139.07L252.74,139.08zM253.64,139.50L252.85,139.50L252.84,139.24zM254.87,140.35L255.46,141.58L255.31,141.66L255.37,142.85L255.46,141.58L255.86,142.98L255.47,144.51L255.37,143.23L255.31,144.42L255.47,144.51L254.84,145.68L254.59,145.40L252.94,146.41L250.72,146.58L249.10,145.60L248.12,143.72L248.13,142.38L249.10,140.48L250.56,139.58L252.85,139.50L252.96,139.69L253.53,139.67L253.64,139.50L254.10,139.58zM248.13,142.38L247.87,142.39L248.04,141.40zM248.04,144.41L247.87,143.70L248.12,143.72zM250.74,146.84L250.03,146.66L250.72,146.58zM250.84,147.00L250.74,146.84L252.77,146.92zM212.73,170.72L213.77,172.30L215.37,173.57L216.13,175.43L217.44,176.50L218.46,176.49L218.72,177.52L220.82,178.86L222.14,180.17L223.71,180.12L225.00,182.26L226.59,184.33L231.33,188.76L231.82,189.84L232.60,190.37L233.94,191.68L233.93,192.29L233.56,192.99L231.45,195.33L230.42,195.90L229.74,195.88L227.88,194.04L223.96,190.63L221.84,189.56L222.13,189.04L220.82,187.75L218.89,186.96L219.26,186.42L215.09,181.97L212.97,179.90L210.36,179.10L206.69,175.70L206.20,174.63L204.33,173.08L204.31,172.12L205.26,170.45L206.86,168.65L208.42,167.58L209.31,167.58zM207.49,179.88L207.71,180.97L208.27,182.24L210.63,184.33L212.47,185.89L214.28,186.96L217.96,190.38L218.37,190.40L218.74,189.55L220.31,192.71L220.82,192.99L222.67,194.80L225.82,197.70L225.82,198.31L224.48,200.40L222.58,201.91L221.61,201.89L220.03,200.32L216.11,196.91L212.35,195.16L212.47,193.77L209.85,191.13L208.29,189.03L206.45,187.47L205.12,186.18L204.08,185.65L202.74,185.42L199.12,182.23L198.57,181.72L198.55,180.76L200.03,178.57L202.25,176.60L203.55,176.49zM253.53,139.67L252.96,139.69L252.85,139.50L253.64,139.50zM255.37,142.85L255.31,141.66L255.46,141.58zM255.47,144.51L255.31,144.42L255.37,143.23z"/></g><g id="hotspot.5" onmouseover="ShowHotSpot(evt,'5')" onmouseout="HideHotSpot(evt,'5')" onmousemove="ShowToolTip(evt,'5',&quot;141&quot;)" opacity="0"><path style="fill:#ffed00;fill-rule:evenodd" d="M196.52,85.12L196.83,85.83L196.66,85.94L196.64,86.52L196.83,86.62L196.83,88.49L195.98,89.98L194.23,91.09L192.35,91.09L190.73,90.11L189.92,88.83L189.92,86.27L190.42,85.12L190.37,84.66L191.65,83.83L192.10,83.75L192.19,83.90L194.40,83.90L194.49,83.75L194.94,83.83zM192.37,91.35L191.66,91.17L192.35,91.09zM196.83,86.62L196.64,86.52L196.66,85.94L196.83,85.83zM197.09,88.48L196.83,88.49L196.83,86.62L197.09,86.63zM194.22,91.35L192.37,91.35L192.35,91.09L194.23,91.09zM194.49,83.75L192.10,83.75L192.19,83.60L194.40,83.60zM197.09,86.63L196.83,86.62L196.83,85.83L196.99,85.91zM197.25,88.37L197.09,88.48L197.09,86.63L197.25,86.73zM197.00,89.19L196.83,88.49L197.09,88.48zM194.22,91.35L194.23,91.09L194.93,91.17zM194.11,91.51L192.48,91.51L192.37,91.35L194.22,91.35zM160.10,110.54L161.43,111.83L163.02,113.11L163.49,113.99L163.76,113.70L165.37,115.48L166.64,118.91L166.57,121.29L165.07,124.76L162.19,129.21L159.57,132.35L155.42,136.31L150.85,139.33L148.50,140.12L147.00,140.12L143.85,139.35L139.44,135.38L137.83,133.59L137.84,131.03L138.81,128.34L140.23,125.80L140.23,125.20L137.04,119.45L137.04,118.47L138.56,115.52L140.09,113.66L142.18,111.82L143.77,110.79L145.71,110.79L150.67,113.18L151.65,113.19L155.56,110.81L157.12,110.27L159.59,110.27zM194.40,83.90L192.19,83.90L192.10,83.75L194.49,83.75z"/></g><g id="hotspot.6" onmouseover="ShowHotSpot(evt,'6')" onmouseout="HideHotSpot(evt,'6')" onmousemove="ShowToolTip(evt,'6',&quot;142&quot;)" opacity="0"><path style="fill:#ffed00;fill-rule:evenodd" d="M173.01,73.03L172.84,72.93L172.84,71.29L173.01,71.18zM175.88,75.91L175.17,75.73L175.86,75.64zM173.27,73.05L173.01,73.03L173.01,71.18L173.27,71.17zM177.73,75.91L175.88,75.91L175.86,75.64L177.74,75.64zM178.00,68.31L175.69,68.14L177.91,68.16zM178.94,68.67L180.02,69.67L180.60,70.91L180.46,71.00L180.26,73.21L179.50,74.54L177.74,75.64L175.86,75.64L174.24,74.67L173.27,73.05L173.27,71.17L174.37,69.42L175.70,68.65L177.91,68.46L178.00,68.31zM173.27,71.17L173.01,71.18L173.19,70.48zM180.77,73.22L180.60,70.91L180.76,71.00zM173.19,73.74L173.01,73.03L173.27,73.05zM177.73,75.91L177.74,75.64L178.44,75.73zM177.62,76.07L175.99,76.07L175.88,75.91L177.73,75.91zM144.13,96.40L145.45,96.66L145.97,99.10L145.36,101.65L143.08,106.18L139.15,111.41L136.95,113.66L133.03,117.33L129.13,119.97L126.79,121.03L124.76,121.31L123.73,120.73L121.90,119.16L121.34,117.60L121.60,115.58L123.22,111.96L126.48,107.11L130.02,103.06L132.79,100.33L137.58,96.75L140.64,95.36L143.10,95.34zM139.08,103.22L137.06,106.70L133.40,110.89L131.73,112.36L128.69,114.29L127.81,114.56L128.43,112.72L131.45,108.15L135.67,104.00L138.90,101.95L139.43,101.89z"/></g><g id="hotspot.7" onmouseover="ShowHotSpot(evt,'7')" onmouseout="HideHotSpot(evt,'7')" onmousemove="ShowToolTip(evt,'7',&quot;143&quot;)" opacity="0"><path style="fill:#ffed00;fill-rule:evenodd" d="M156.52,57.33L156.35,57.22L156.35,55.59L156.52,55.48zM156.78,57.34L156.52,57.33L156.52,55.48L156.78,55.47zM163.53,53.97L164.12,55.21L163.97,55.30L163.85,57.34L163.01,58.83L161.25,59.94L159.38,59.94L157.75,58.97L156.78,57.34L156.78,55.47L157.88,53.71L159.21,52.95L161.42,52.75L161.51,52.60L161.96,52.69zM159.39,60.20L158.68,60.02L159.38,59.94zM164.11,57.33L163.85,57.34L163.97,55.30L164.12,55.21zM161.24,60.20L159.39,60.20L159.38,59.94L161.25,59.94zM161.51,52.60L159.20,52.44L161.42,52.45zM156.78,55.47L156.52,55.48L156.70,54.77zM164.27,57.22L164.11,57.33L164.12,55.21L164.27,55.30zM164.02,58.05L163.85,57.34L164.11,57.33zM156.70,58.04L156.52,57.33L156.78,57.34zM161.24,60.20L161.25,59.94L161.95,60.02zM161.13,60.36L159.50,60.36L159.39,60.20L161.24,60.20zM127.92,64.98L128.43,65.26L141.01,76.49L142.86,78.07L142.85,78.69L136.45,91.70L133.14,98.33L124.13,106.59L118.74,111.67L112.39,117.36L101.21,117.08L87.09,103.98L86.79,103.49L86.79,100.93L91.26,91.78L92.33,88.63L92.34,88.03L91.25,86.73L90.98,86.21L90.98,83.65L92.56,80.00L94.82,76.76L98.35,72.70L100.05,71.26L103.55,68.74L105.57,67.88L107.48,67.60L108.80,68.13L109.86,69.20L110.26,69.20L115.06,64.80L125.54,64.74z"/></g><g id="hotspot.8" onmouseover="ShowHotSpot(evt,'8')" onmouseout="HideHotSpot(evt,'8')" onmousemove="ShowToolTip(evt,'8',&quot;144&quot;)" opacity="0"><path style="fill:#ffed00;fill-rule:evenodd" d="M202.85,101.04L202.68,100.93L202.69,99.82L202.85,99.73zM203.11,101.05L202.85,101.04L202.85,99.73L203.11,99.72zM209.59,97.43L210.43,98.67L210.26,99.62L210.44,99.72L210.44,100.77L209.46,102.94L207.84,103.91L205.70,103.91L204.08,102.94L203.11,101.05L203.11,99.72L203.95,97.95L205.54,96.92L208.01,96.72L208.10,96.58L208.55,96.66zM205.72,104.17L205.01,103.99L205.70,103.91zM210.44,99.72L210.26,99.62L210.43,98.67zM210.70,100.76L210.44,100.77L210.44,99.72L210.70,99.73zM207.83,104.17L205.72,104.17L205.70,103.91L207.84,103.91zM208.10,96.58L205.53,96.41L208.01,96.42zM210.70,99.73L210.44,99.72L210.43,98.67L210.59,98.75zM203.11,99.72L202.85,99.73L203.02,98.74zM210.98,100.01L210.70,100.76L210.70,99.73zM210.61,101.75L210.44,100.77L210.70,100.76zM203.02,101.75L202.85,101.04L203.11,101.05zM207.83,104.17L207.84,103.91L208.54,103.99zM207.72,104.34L205.83,104.34L205.72,104.17L207.83,104.17zM178.15,127.03L179.22,128.33L179.21,130.79L178.16,133.66L175.79,137.58L172.13,142.30L169.28,145.20L166.92,147.29L164.27,149.36L160.80,151.38L158.69,151.91L157.23,151.62L154.88,149.52L154.58,149.04L154.59,147.00L155.65,143.87L157.66,140.39L160.90,136.04L164.17,132.50L166.38,130.52L168.65,128.60L172.05,126.51L173.61,125.72L174.67,125.46L176.08,125.45zM167.98,137.82L165.84,139.95L165.84,139.45L167.87,137.49z"/></g><g id="hotspot.9" onmouseover="ShowHotSpot(evt,'9')" onmouseout="HideHotSpot(evt,'9')" onmousemove="ShowToolTip(evt,'9',&quot;145&quot;)" opacity="0"><path style="fill:#ffed00;fill-rule:evenodd" d="M229.23,116.26L229.55,116.98L229.38,117.09L229.36,117.66L229.55,117.77L229.55,119.64L228.70,121.13L226.95,122.23L225.07,122.23L223.45,121.26L222.64,119.98L222.64,117.42L223.14,116.26L223.09,115.80L224.36,114.98L224.81,114.90L224.90,115.05L227.12,115.05L227.21,114.90L227.65,114.98zM225.09,122.49L224.38,122.32L225.07,122.23zM229.55,117.77L229.36,117.66L229.38,117.09L229.55,116.98zM229.81,119.62L229.55,119.64L229.55,117.77L229.81,117.78zM226.93,122.49L225.09,122.49L225.07,122.23L226.95,122.23zM227.21,114.90L224.81,114.90L224.90,114.74L227.12,114.74zM229.81,117.78L229.55,117.77L229.55,116.98L229.71,117.06zM229.97,119.51L229.81,119.62L229.81,117.78L229.97,117.88zM229.72,120.34L229.55,119.64L229.81,119.62zM226.93,122.49L226.95,122.23L227.64,122.32zM226.83,122.66L225.19,122.66L225.09,122.49L226.93,122.49zM184.44,141.17L192.05,148.47L193.36,150.13L193.61,150.10L194.38,150.59L197.28,153.44L206.18,161.82L206.17,163.24L205.89,164.01L205.03,165.77L202.78,168.49L199.25,171.26L197.95,171.23L196.62,172.28L195.59,173.86L192.84,176.09L191.43,176.78L190.20,176.76L167.71,156.85L167.36,156.07L168.20,153.55L175.04,143.63L176.87,141.53L179.11,139.59L181.30,138.78zM227.12,115.05L224.90,115.05L224.81,114.90L227.21,114.90z"/></g></g></svg>
